<?xml version="1.0" encoding="utf-8"?>
<!-- Generator: Adobe Illustrator 21.0.0, SVG Export Plug-In . SVG Version: 6.00 Build 0)  -->
<svg version="1.1" id="Layer_1" xmlns="http://www.w3.org/2000/svg" xmlns:xlink="http://www.w3.org/1999/xlink" x="0px" y="0px"
	 viewBox="0 0 2212.1 1200" style="enable-background:new 0 0 2212.1 1200;" xml:space="preserve">
<style type="text/css">
	.st0{fill:#E2E2E2;}
	.st1{fill:#231F20;}
</style>
<g>
	<g>
		<rect class="st0" width="2212.1" height="1200"/>
	</g>
</g>
<rect y="301.5" class="st1" width="2212.1" height="597.1"/>
<rect x="0" y="198" transform="matrix(6.123234e-17 -1 1 6.123234e-17 506.0381 1706.0381)" class="st1" width="2212.1" height="804"/>
<rect x="444.5" y="524.5" transform="matrix(0.8277 -0.5611 0.5611 0.8277 -146.1399 723.9782)" class="st0" width="1323.1" height="151"/>
<rect x="444.5" y="524.5" transform="matrix(-0.7987 -0.6017 0.6017 -0.7987 1628.4662 1744.7224)" class="st0" width="1323.1" height="151"/>
<rect x="1190.9" y="587.3" transform="matrix(6.123234e-17 -1 1 6.123234e-17 969.367 2294.9614)" class="st0" width="882.6" height="151"/>
<rect x="187.3" y="587.3" transform="matrix(6.123234e-17 -1 1 6.123234e-17 -34.2621 1291.3322)" class="st0" width="882.6" height="151"/>
<rect x="689.1" y="96.5" transform="matrix(-1 -1.224647e-16 1.224647e-16 -1 2260.6992 343.9652)" class="st0" width="882.6" height="151"/>
<rect x="689.1" y="917.1" transform="matrix(-1 -2.342911e-15 2.342911e-15 -1 2260.6992 1985.2235)" class="st0" width="882.6" height="151"/>
</svg>
