<?xml version="1.0" standalone="no"?>
<!DOCTYPE svg PUBLIC "-//W3C//DTD SVG 20010904//EN"
 "http://www.w3.org/TR/2001/REC-SVG-20010904/DTD/svg10.dtd">
<svg version="1.0" xmlns="http://www.w3.org/2000/svg"
 width="576.000000pt" height="576.000000pt" viewBox="0 0 576.000000 576.000000"
 preserveAspectRatio="xMidYMid meet">
<metadata>
Created by potrace 1.11, written by Peter Selinger 2001-2013
</metadata>
<g transform="translate(0.000000,576.000000) scale(0.100000,-0.100000)"
fill="#000000" stroke="none">
<path d="M2775 5190 c-4 -6 -11 -7 -17 -4 -7 4 -8 2 -4 -5 4 -6 12 -8 18 -5 7
4 8 2 4 -5 -5 -7 -13 -8 -24 -2 -12 7 -19 3 -29 -16 -17 -33 -17 -35 6 -21 11
7 18 16 15 20 -3 4 2 5 11 2 9 -4 24 1 33 9 10 9 23 13 30 8 10 -6 7 -14 -12
-32 -24 -22 -36 -46 -18 -35 4 2 14 0 22 -5 11 -7 8 -8 -10 -6 -16 3 -25 10
-25 22 0 10 -6 20 -13 23 -8 2 -10 -3 -6 -15 5 -15 4 -15 -5 -3 -8 12 -14 11
-35 -9 -13 -13 -31 -21 -38 -18 -9 4 -8 6 4 6 10 1 15 8 13 19 -2 9 -4 21 -4
25 -1 5 -5 6 -11 2 -5 -3 -6 -13 -3 -23 3 -9 2 -14 -2 -9 -9 7 -45 -40 -45
-58 1 -5 7 1 15 15 8 14 14 19 15 13 0 -7 -8 -21 -17 -31 -21 -20 -23 -84 -5
-90 10 -3 10 -7 0 -20 -10 -12 -10 -14 0 -8 7 4 12 1 12 -8 0 -9 3 -16 8 -16
4 0 16 -13 27 -29 10 -16 22 -28 26 -25 13 8 39 -8 32 -20 -4 -6 2 -4 12 4 15
12 17 12 10 1 -6 -11 -4 -13 8 -8 10 4 17 1 17 -6 0 -8 4 -6 10 3 9 13 10 13
11 0 0 -10 3 -8 9 5 5 11 9 15 9 10 1 -6 10 -11 21 -11 14 0 19 5 15 15 -4 11
-2 11 9 2 11 -9 15 -8 20 6 6 15 8 15 16 3 8 -13 10 -12 10 2 0 10 9 22 20 28
11 6 20 17 20 25 0 8 5 15 11 15 5 0 8 4 4 9 -3 5 -1 12 5 16 6 4 8 11 4 16
-3 5 -10 6 -16 3 -7 -4 -8 -2 -4 5 4 6 11 9 16 6 4 -3 10 2 14 10 3 8 1 15 -4
15 -6 0 -10 5 -10 11 0 5 5 7 10 4 15 -9 12 0 -9 23 -10 12 -22 18 -26 14 -5
-4 -5 -1 -1 6 6 11 11 11 24 0 9 -8 6 3 -9 29 -13 23 -25 40 -27 38 -7 -7 -30
20 -25 28 2 4 1 6 -4 5 -4 -1 -19 4 -32 11 -14 8 -21 9 -17 2 4 -6 2 -11 -4
-11 -6 0 -8 -5 -5 -11 4 -6 -2 -19 -14 -30 -26 -24 -35 -24 -19 0 7 11 15 18
19 16 3 -3 7 6 7 19 0 21 -4 24 -34 21 -19 -2 -31 1 -28 6 3 5 3 9 0 9 -3 0
-8 -5 -11 -10z m119 -36 c4 -9 4 -19 1 -22 -3 -3 -5 0 -5 7 0 7 -4 10 -8 7 -5
-3 -9 1 -9 9 0 20 13 19 21 -1z m-20 -39 c-4 -8 -8 -15 -10 -15 -2 0 -4 7 -4
15 0 8 4 15 10 15 5 0 7 -7 4 -15z m-133 -37 c-10 -11 -11 -9 -6 7 7 20 6 20
-9 1 -9 -11 -16 -15 -16 -10 0 18 23 35 34 24 7 -7 6 -14 -3 -22z m109 22 c0
-5 -5 -10 -11 -10 -5 0 -7 5 -4 10 3 6 8 10 11 10 2 0 4 -4 4 -10z m75 0 c3
-5 1 -10 -4 -10 -6 0 -11 5 -11 10 0 6 2 10 4 10 3 0 8 -4 11 -10z m-152 -29
c3 -13 1 -18 -9 -14 -7 2 -10 11 -7 19 7 19 10 18 16 -5z m111 -3 c1 -7 5 -18
8 -24 4 -6 2 -11 -5 -11 -7 0 -13 13 -14 29 -1 28 7 33 11 6z m-189 -6 c-3 -3
-11 0 -18 7 -9 10 -8 11 6 5 10 -3 15 -9 12 -12z m156 1 c13 -16 12 -17 -3 -4
-17 13 -22 21 -14 21 2 0 10 -8 17 -17z m79 -7 c-7 -7 -13 -7 -20 0 -6 6 -3
10 10 10 13 0 16 -4 10 -10z m-240 -16 c0 -5 -5 -10 -11 -10 -5 0 -7 5 -4 10
3 6 8 10 11 10 2 0 4 -4 4 -10z m37 -25 c0 -8 -4 -12 -9 -9 -4 3 -8 9 -8 15 0
5 4 9 8 9 5 0 9 -7 9 -15z m160 -10 c0 -8 -4 -15 -9 -15 -10 0 -11 14 -1 23 9
10 10 9 10 -8z m-63 -24 c3 -5 -2 -15 -12 -22 -15 -12 -16 -12 -5 2 7 9 10 19
6 22 -3 4 -4 7 0 7 3 0 8 -4 11 -9z"/>
<path d="M2707 5163 c-4 -3 -7 -11 -7 -17 0 -6 5 -5 12 2 6 6 9 14 7 17 -3 3
-9 2 -12 -2z"/>
<path d="M2790 5155 c-7 -9 -11 -18 -8 -20 3 -3 11 1 18 10 7 9 11 18 8 20 -3
3 -11 -1 -18 -10z"/>
<path d="M3314 4928 c-5 -7 -3 -8 6 -3 9 5 11 4 6 -3 -5 -9 -13 -9 -28 -1 -15
8 -19 8 -14 0 4 -6 0 -11 -9 -11 -10 0 -13 -5 -9 -12 4 -6 3 -8 -4 -4 -28 17
-135 -123 -127 -166 2 -10 -1 -18 -6 -18 -6 0 -7 -5 -4 -10 3 -6 7 -28 7 -50
0 -22 4 -40 8 -40 3 0 7 -6 7 -12 0 -7 2 -19 4 -27 5 -20 83 -101 97 -101 6 0
12 -5 14 -11 2 -5 10 -11 18 -13 8 -1 25 -8 38 -14 18 -10 22 -10 22 0 0 8 3
9 8 3 8 -13 85 -9 122 5 3 1 8 2 13 1 4 0 7 4 7 10 0 5 4 8 9 4 6 -3 14 3 20
12 6 10 11 14 11 10 0 -12 70 61 70 73 0 6 4 10 8 10 4 0 8 10 9 22 1 11 6 24
10 27 4 3 8 15 7 26 0 11 5 26 10 34 8 11 8 13 -2 7 -10 -6 -12 -1 -9 21 3 15
-2 43 -9 62 -8 18 -11 37 -8 42 3 5 -2 9 -10 9 -9 0 -16 7 -16 15 0 8 -4 15
-10 15 -5 0 -10 7 -10 16 0 8 -5 12 -10 9 -6 -3 -13 1 -16 9 -3 9 -10 16 -16
16 -5 0 -16 7 -25 16 -9 8 -22 13 -29 10 -8 -3 -14 -1 -14 5 0 6 -6 9 -12 6
-7 -2 -25 -1 -39 3 -15 5 -32 4 -40 0 -7 -5 -21 -4 -30 1 -12 6 -20 5 -25 -3z
m131 -56 c-3 -3 -11 0 -18 7 -9 10 -8 11 6 5 10 -3 15 -9 12 -12z"/>
<path d="M2194 4858 c-3 -4 -12 -4 -21 -1 -11 4 -14 3 -9 -5 5 -8 2 -10 -8 -6
-22 8 -20 -13 2 -25 9 -6 13 -11 8 -11 -5 0 -17 7 -27 16 -15 14 -18 13 -37
-10 -10 -14 -23 -22 -28 -18 -5 4 -2 -1 5 -10 11 -15 11 -18 -2 -18 -11 0 -15
-7 -12 -21 3 -14 0 -19 -9 -16 -16 6 -10 -29 8 -52 8 -11 8 -13 -1 -8 -13 8
-22 -11 -15 -35 2 -10 9 -15 16 -11 7 4 7 1 -1 -8 -10 -13 -6 -23 27 -59 22
-24 40 -41 40 -36 0 4 7 0 16 -8 8 -9 20 -14 25 -11 5 4 9 1 9 -6 0 -7 3 -9 7
-6 3 4 13 1 21 -6 13 -10 14 -9 7 2 -6 11 -3 13 15 8 13 -3 31 -1 39 6 12 9
13 9 8 0 -5 -8 2 -7 20 2 15 8 34 15 41 15 6 0 12 4 12 8 0 5 8 17 18 28 35
39 52 73 40 80 -7 5 -5 11 7 21 11 7 13 13 7 13 -10 0 -10 5 -1 21 9 17 8 20
-2 14 -9 -6 -11 -3 -6 8 4 12 1 17 -11 18 -10 0 -12 3 -4 6 20 8 14 30 -15 53
-16 12 -22 18 -14 14 8 -4 12 -3 8 3 -3 5 -24 18 -46 28 -22 10 -39 21 -36 24
2 4 -5 7 -15 7 -10 0 -16 -4 -14 -8 3 -4 0 -8 -5 -8 -6 0 -11 4 -11 8 0 10
-50 11 -56 0z m36 -12 c0 -3 -4 -8 -10 -11 -5 -3 -10 -1 -10 4 0 6 5 11 10 11
6 0 10 -2 10 -4z m-110 -36 c-12 -8 -12 -10 -1 -10 8 0 12 -3 8 -6 -9 -9 -28
6 -22 17 4 5 12 9 18 9 7 0 6 -4 -3 -10z m15 -50 c3 -6 -1 -7 -9 -4 -18 7 -21
14 -7 14 6 0 13 -4 16 -10z"/>
<path d="M3884 4666 c-3 -8 -14 -13 -25 -11 -10 2 -19 0 -19 -6 0 -5 -3 -8 -7
-7 -13 3 -63 -24 -63 -34 0 -4 -3 -7 -7 -5 -5 1 -9 -1 -10 -5 -5 -15 -38 -45
-45 -41 -5 2 -8 -3 -8 -11 0 -9 -5 -16 -11 -16 -5 0 -8 -4 -5 -9 3 -5 -1 -14
-8 -21 -14 -11 -32 -66 -28 -82 1 -5 -2 -8 -7 -8 -10 0 -9 -19 2 -37 4 -6 3
-14 -2 -17 -4 -3 -8 -17 -8 -31 0 -13 2 -23 6 -21 4 3 7 -3 8 -12 2 -41 8 -72
13 -72 3 0 11 -13 18 -29 14 -32 73 -96 110 -121 23 -15 22 -15 -27 -42 l-49
-28 2 35 c1 19 -1 35 -5 35 -3 0 -6 6 -6 14 0 24 -34 106 -44 106 -5 0 -9 7
-9 15 0 8 -9 19 -20 25 -11 6 -20 17 -20 25 0 8 -7 15 -15 15 -8 0 -15 5 -15
10 0 6 -7 10 -15 10 -8 0 -15 5 -15 10 0 6 -9 10 -20 10 -11 0 -20 5 -20 11 0
6 -9 9 -20 6 -11 -3 -20 -2 -20 2 0 9 -8 11 -87 14 -35 1 -63 -1 -63 -5 0 -5
-9 -8 -20 -8 -12 0 -34 -7 -50 -15 -17 -9 -30 -13 -30 -10 0 3 -8 -3 -18 -13
-10 -10 -27 -25 -38 -33 -26 -18 -79 -89 -68 -89 5 0 3 -4 -4 -9 -7 -4 -14
-18 -15 -29 -1 -12 -5 -22 -10 -22 -4 0 -6 -4 -2 -9 3 -5 1 -13 -5 -16 -8 -5
-8 -11 0 -20 7 -8 7 -16 2 -19 -12 -7 -7 -81 7 -118 6 -16 8 -28 5 -28 -4 0 0
-8 7 -17 8 -10 -11 6 -40 35 -30 28 -61 52 -69 52 -7 0 -10 4 -7 10 3 5 0 7
-8 4 -8 -3 -18 0 -22 5 -3 6 -11 9 -16 6 -5 -4 -9 -1 -9 6 0 7 -3 9 -7 6 -3
-4 -12 -2 -20 4 -10 9 -13 8 -13 -1 0 -9 -3 -10 -13 -1 -8 6 -17 8 -20 4 -4
-3 -14 0 -24 8 -13 11 -15 11 -9 1 6 -11 1 -12 -23 -9 -17 3 -31 2 -31 -2 0
-5 -11 -7 -25 -6 -14 2 -25 -1 -25 -5 0 -5 -13 -11 -30 -15 -16 -4 -30 -11
-30 -16 0 -6 -4 -8 -9 -4 -6 3 -15 -4 -21 -15 -6 -11 -14 -19 -18 -16 -4 2
-13 -2 -20 -10 -7 -8 -10 -14 -7 -14 3 0 0 -6 -7 -14 -7 -8 -16 -12 -20 -9 -5
2 -8 -5 -8 -16 0 -11 -6 -26 -13 -33 -36 -37 -52 -158 -31 -240 4 -20 2 -28
-7 -28 -7 0 -10 3 -6 6 7 7 -17 34 -30 34 -5 0 -15 9 -23 19 -7 11 -17 18 -22
15 -4 -3 -8 -1 -8 5 0 6 -7 7 -17 4 -11 -4 -14 -3 -9 5 6 11 -26 18 -56 13 -5
0 -8 3 -8 7 0 5 -31 8 -70 8 -38 0 -70 -4 -70 -7 0 -4 -11 -6 -24 -5 -15 2
-27 -3 -31 -11 -3 -9 -12 -13 -21 -9 -8 3 -12 2 -9 -4 3 -6 -1 -10 -9 -10 -9
0 -25 -9 -36 -20 -11 -11 -25 -20 -30 -20 -5 0 -10 -4 -10 -8 0 -5 -8 -18 -18
-30 -45 -54 -51 -62 -46 -62 4 0 1 -7 -6 -15 -7 -8 -9 -15 -4 -15 4 0 3 -5 -3
-11 -6 -6 -9 -18 -6 -25 3 -8 1 -14 -4 -14 -5 0 -9 -36 -8 -79 0 -44 3 -77 8
-74 4 2 7 -5 7 -16 0 -29 2 -34 17 -49 7 -8 11 -18 8 -23 -4 -5 -3 -9 2 -9 4
0 21 -18 37 -40 17 -22 36 -40 43 -40 7 0 13 -7 13 -17 0 -9 3 -14 6 -10 3 3
25 -5 47 -17 23 -13 48 -21 55 -19 6 3 12 0 12 -6 0 -5 9 -8 20 -6 11 2 23 -1
26 -7 4 -7 2 -8 -4 -4 -7 4 -12 3 -12 -3 0 -5 -9 -8 -20 -6 -11 2 -20 -1 -20
-6 0 -6 -5 -7 -12 -3 -6 4 -17 -1 -24 -10 -7 -10 -16 -17 -21 -17 -17 1 -43
-11 -43 -20 0 -5 -7 -9 -15 -9 -8 0 -15 -4 -15 -9 0 -5 -13 -23 -30 -41 -16
-18 -30 -38 -30 -46 0 -8 -5 -14 -11 -14 -5 0 -8 -4 -4 -9 3 -5 1 -12 -5 -16
-6 -4 -8 -10 -5 -15 3 -5 1 -11 -4 -15 -6 -3 -8 -12 -4 -20 3 -8 0 -15 -5 -15
-7 0 -8 -10 -2 -30 5 -19 5 -30 -1 -30 -6 0 -7 -6 -2 -12 4 -7 7 -23 8 -35 0
-12 3 -25 8 -29 4 -4 7 -16 7 -26 0 -10 5 -18 10 -18 6 0 10 -7 10 -16 0 -8 7
-22 15 -31 8 -8 12 -20 8 -26 -3 -7 -3 -9 2 -5 4 4 24 -9 43 -30 20 -20 36
-35 36 -34 2 8 56 -22 56 -30 0 -5 5 -6 10 -3 6 4 16 2 23 -3 7 -5 23 -8 37
-7 14 1 29 0 35 -3 16 -10 45 -9 45 1 0 5 11 7 25 5 14 -3 25 -1 25 3 0 5 5 9
11 9 5 0 7 -6 4 -12 -4 -7 0 -5 9 6 8 10 19 15 25 11 6 -3 11 -2 11 3 0 5 10
14 23 19 23 11 24 9 24 -33 1 -30 -3 -42 -11 -37 -6 4 -3 -5 6 -19 12 -18 14
-29 7 -33 -6 -4 -3 -12 8 -21 13 -10 14 -14 3 -12 -8 2 -23 11 -34 21 -11 9
-26 17 -33 17 -7 0 -13 4 -13 8 0 7 -16 11 -57 14 -7 1 -13 6 -13 11 0 5 -7 4
-15 -3 -11 -9 -15 -9 -15 -1 0 8 -5 9 -19 1 -13 -7 -22 -7 -26 0 -4 7 -12 7
-24 0 -10 -5 -21 -6 -25 -3 -3 3 -6 1 -6 -5 0 -7 -3 -11 -7 -10 -16 3 -63 -15
-63 -24 0 -6 -7 -5 -15 2 -13 11 -14 10 -9 -4 3 -9 2 -16 -4 -16 -12 0 -75
-60 -64 -60 4 0 -2 -7 -12 -15 -11 -8 -16 -15 -12 -15 5 0 3 -7 -4 -15 -7 -8
-9 -15 -4 -15 5 0 3 -4 -4 -8 -29 -19 -31 -192 -2 -226 5 -7 7 -16 3 -19 -3
-4 -1 -7 6 -7 7 0 10 -4 6 -9 -3 -6 3 -14 12 -20 10 -6 15 -11 11 -11 -4 0 9
-18 30 -39 20 -21 40 -37 44 -35 3 2 8 0 10 -5 1 -5 10 -11 18 -13 8 -2 18 -7
21 -11 3 -4 15 -9 27 -10 11 0 18 -5 16 -9 -3 -4 9 -6 25 -4 17 2 32 -2 35 -8
3 -7 5 -7 5 0 1 5 16 9 33 8 18 -1 37 1 43 4 13 8 36 13 58 13 10 0 20 6 23
14 3 8 13 11 21 8 9 -4 14 -2 11 3 -3 5 5 17 18 27 21 15 24 16 24 2 0 -8 -3
-15 -8 -15 -4 0 -7 -27 -7 -59 0 -38 -3 -57 -10 -53 -5 3 -4 -1 2 -9 10 -12
10 -18 0 -28 -6 -7 -7 -12 -2 -11 22 5 27 -1 14 -17 -12 -15 -12 -16 4 -10 11
4 16 3 12 -4 -4 -5 -2 -16 4 -23 9 -11 6 -12 -14 -8 -14 2 -22 8 -19 13 3 5
-2 9 -11 9 -9 0 -13 5 -10 10 3 6 -1 10 -9 10 -9 0 -16 5 -16 11 0 5 -4 8 -9
4 -5 -3 -12 -1 -16 5 -3 5 -1 10 6 10 7 0 9 3 6 6 -4 4 -13 1 -22 -6 -11 -9
-15 -9 -15 -1 0 7 -4 10 -9 6 -5 -3 -16 2 -25 10 -10 10 -17 12 -21 5 -5 -8
-11 -7 -21 1 -11 9 -17 9 -28 0 -11 -9 -15 -9 -19 1 -4 10 -8 10 -14 1 -13
-18 -49 -21 -45 -3 2 8 0 11 -5 7 -4 -5 -9 -13 -9 -18 -3 -22 -5 -23 -14 -9
-8 13 -10 12 -10 -3 0 -10 -4 -16 -9 -12 -5 3 -12 1 -16 -5 -3 -5 -11 -10 -16
-10 -6 0 -7 5 -3 12 4 7 3 8 -4 4 -6 -4 -9 -13 -5 -21 3 -9 -1 -15 -10 -15 -9
0 -19 -9 -22 -20 -4 -11 -11 -18 -16 -15 -5 4 -9 -1 -9 -9 0 -8 -6 -21 -14
-28 -14 -15 -31 -71 -29 -100 0 -10 -4 -18 -10 -18 -6 0 -7 -3 -4 -7 4 -3 1
-13 -6 -21 -10 -13 -9 -15 3 -10 11 4 15 -2 15 -22 0 -23 -3 -26 -14 -17 -12
10 -12 9 -1 -10 8 -12 19 -19 25 -15 5 3 3 -3 -5 -13 -9 -11 -10 -16 -2 -11 8
5 12 0 12 -13 0 -12 4 -21 10 -21 5 0 7 -6 4 -14 -3 -8 0 -17 7 -22 8 -5 10
-3 4 6 -6 9 -4 11 4 6 7 -5 10 -14 7 -22 -3 -7 0 -16 6 -20 7 -4 8 -3 4 4 -4
7 -2 12 3 12 6 0 11 -6 11 -13 0 -17 40 -51 41 -34 0 6 4 2 9 -10 6 -13 18
-23 30 -23 11 0 20 -6 20 -12 0 -9 4 -8 10 2 8 12 10 12 10 1 0 -8 3 -11 7 -8
3 4 14 0 24 -9 11 -10 19 -12 24 -5 9 15 28 14 19 -1 -4 -7 5 -2 19 11 15 14
27 19 27 13 0 -7 -4 -12 -10 -12 -5 0 -10 -4 -10 -10 0 -13 32 0 48 19 11 14
12 13 7 -9 l-6 -25 15 25 c10 15 15 19 16 10 0 -13 2 -13 9 -1 5 8 16 11 25 8
14 -6 15 -3 5 16 -11 20 -11 21 4 8 12 -9 17 -10 17 -2 0 7 4 10 9 7 5 -3 11
3 14 14 3 11 11 19 19 18 7 -2 12 3 11 10 -2 6 1 12 5 12 4 0 14 -6 22 -12 8
-7 6 -2 -5 12 -11 14 -16 22 -11 18 12 -10 39 29 31 42 -4 6 -1 9 6 8 6 -2 12
7 14 19 1 13 5 26 10 30 4 5 5 -1 1 -12 -6 -16 -5 -17 5 -8 9 9 9 16 1 25 -12
15 -10 77 3 98 6 9 4 11 -5 5 -10 -6 -12 -4 -7 8 3 9 2 19 -4 22 -5 4 -7 11
-4 16 4 5 1 9 -5 9 -6 0 -8 5 -5 10 3 6 1 10 -5 10 -6 0 -8 5 -4 11 3 6 15 -4
28 -26 12 -19 26 -32 31 -28 4 4 5 2 1 -5 -4 -7 -1 -15 8 -18 9 -3 16 -10 16
-16 0 -5 -5 -6 -12 -2 -7 5 -8 3 -3 -5 5 -9 11 -9 17 -3 11 11 50 -16 42 -30
-3 -4 2 -5 11 -2 11 5 14 2 9 -10 -4 -10 -13 -15 -20 -12 -8 3 -13 1 -11 -5 1
-6 -9 -18 -23 -27 -17 -12 -22 -13 -16 -3 7 10 5 12 -3 7 -7 -5 -10 -14 -7
-22 3 -8 -1 -14 -9 -14 -8 0 -14 -3 -14 -7 4 -23 -3 -35 -15 -30 -10 4 -13 1
-9 -9 3 -7 0 -14 -7 -14 -6 0 -8 -4 -5 -10 3 -5 1 -10 -5 -10 -6 0 -8 -5 -4
-12 4 -6 -1 -17 -11 -25 -11 -7 -15 -13 -11 -13 5 0 2 -8 -5 -17 -12 -15 -12
-16 1 -8 12 6 13 5 3 -6 -16 -16 -17 -33 -2 -23 6 3 5 -4 -3 -17 -8 -13 -14
-30 -13 -36 2 -7 3 -18 4 -24 0 -5 5 -7 11 -4 6 3 7 -1 4 -10 -5 -13 -9 -13
-23 -3 -9 7 -5 -1 9 -16 14 -16 19 -26 13 -22 -15 8 -5 -25 9 -35 5 -3 11 -12
12 -20 5 -24 25 -69 31 -69 4 0 3 5 -1 12 -5 7 -3 8 5 4 9 -6 8 -13 -6 -29
-10 -12 -12 -17 -3 -10 11 8 18 8 27 -2 6 -7 9 -16 5 -20 -4 -4 3 -2 16 4 19
10 23 9 29 -6 3 -10 8 -21 10 -25 2 -4 -4 -5 -13 -1 -12 4 -15 3 -10 -6 4 -6
16 -9 27 -6 15 5 17 3 12 -11 -4 -11 -3 -15 4 -11 6 4 19 0 27 -9 9 -9 16 -11
16 -4 0 6 4 9 10 5 5 -3 7 -13 4 -23 -5 -13 -4 -14 4 -3 8 11 10 11 15 0 4
-10 6 -10 6 -1 1 6 6 12 12 12 5 0 7 -5 3 -12 -4 -7 -3 -8 4 -4 7 4 12 2 12
-3 0 -6 9 -3 20 6 13 12 18 25 15 42 -5 23 -4 23 4 6 7 -14 10 -15 10 -5 1 13
2 13 11 0 9 -13 10 -13 10 0 1 11 4 9 13 -5 14 -24 44 -28 51 -8 5 11 0 13
-17 8 -17 -5 -19 -4 -7 4 13 9 12 11 -4 11 -11 0 -16 3 -13 6 10 10 65 -16 71
-33 3 -8 10 -11 16 -8 6 3 13 -1 16 -10 6 -14 8 -13 21 5 8 11 18 18 23 15 5
-3 12 -1 15 5 4 6 16 8 28 5 16 -5 18 -4 8 3 -11 8 -11 10 0 14 8 3 -1 5 -19
4 -18 -1 -37 -7 -41 -15 -6 -9 -11 -10 -15 -2 -4 6 -2 11 4 11 6 0 8 5 4 12
-4 6 -3 8 4 4 6 -3 18 4 27 16 l17 23 -7 -22 c-4 -14 -2 -23 4 -23 6 0 12 5
12 10 1 6 2 16 3 22 0 7 10 14 21 15 15 2 16 1 5 -5 -17 -8 -25 -32 -10 -32 6
0 10 5 10 10 0 6 4 10 9 10 6 0 8 -9 6 -20 -2 -11 0 -18 4 -15 5 3 7 24 5 47
-2 34 -1 38 6 21 12 -29 20 -29 15 -1 -3 13 -12 29 -22 36 -9 6 -12 12 -6 12
6 0 21 -12 32 -27 19 -26 20 -26 16 -5 -3 19 0 22 21 18 14 -3 22 -1 19 5 -4
5 -10 7 -14 4 -5 -2 -8 9 -7 24 1 16 4 27 9 24 4 -2 7 1 7 7 0 6 4 9 9 5 5 -3
13 0 17 6 4 8 3 9 -4 5 -7 -4 -12 -1 -12 9 0 12 5 15 18 11 14 -5 14 -4 -2 9
-11 8 -16 15 -12 15 5 0 2 8 -5 18 -12 15 -11 15 8 -1 16 -14 23 -15 29 -6 4
7 3 10 -3 6 -6 -4 -14 1 -18 10 -3 10 -1 19 4 21 6 2 8 8 5 13 -3 6 -11 5 -20
-2 -27 -22 -14 -3 18 27 17 16 28 23 24 17 -4 -7 -2 -13 3 -13 22 0 26 -2 42
-16 9 -8 20 -11 24 -7 5 5 3 0 -4 -10 -13 -16 -12 -17 13 -7 15 5 25 6 22 1
-3 -5 1 -11 9 -14 10 -4 12 -1 9 11 -4 10 -3 13 3 6 4 -6 20 -10 35 -10 14 1
25 -1 22 -5 -2 -4 3 -10 12 -13 23 -9 31 -7 14 4 -8 5 -11 12 -7 16 3 4 13 1
21 -5 11 -9 16 -9 22 0 5 8 3 9 -6 4 -9 -5 -11 -4 -6 4 4 6 13 8 19 4 24 -15
43 -12 22 3 -19 15 -18 15 10 9 17 -4 35 -8 42 -10 7 -2 15 1 19 7 4 7 3 8 -4
4 -7 -4 -12 -2 -12 4 0 6 8 10 18 8 23 -4 52 19 52 41 1 13 3 13 17 -4 13 -17
15 -17 10 -2 -4 11 -2 17 6 15 7 -2 13 2 13 7 0 6 -7 9 -16 7 -11 -2 -10 0 3
8 9 6 14 16 11 22 -4 7 -2 8 5 4 6 -4 9 -11 7 -15 -3 -4 1 -8 9 -8 8 0 12 4 9
8 -2 4 4 13 13 19 16 10 16 11 1 6 -10 -3 -20 -1 -23 5 -4 5 -3 9 2 8 22 -4
33 3 33 21 0 11 6 23 14 26 8 3 17 13 20 21 5 13 4 14 -9 3 -9 -7 -18 -11 -20
-8 -3 3 6 11 20 18 14 7 25 17 25 22 0 5 -4 6 -10 3 -5 -3 -10 -1 -10 4 0 6 4
11 9 11 4 0 7 16 5 35 -1 23 1 33 8 29 7 -5 8 -2 4 5 -5 7 -10 26 -13 44 -4
26 -3 29 10 19 7 -6 16 -10 19 -7 2 3 5 -2 5 -10 0 -8 -4 -12 -8 -9 -4 2 -10
0 -14 -5 -6 -10 27 -7 44 4 5 3 12 1 16 -5 4 -6 11 -8 16 -5 5 3 6 -1 3 -9 -4
-11 0 -16 11 -16 10 0 13 5 9 12 -5 7 -3 8 6 3 10 -6 9 -11 -5 -22 -23 -16
-12 -17 17 -2 18 10 20 9 14 -7 -6 -15 -5 -16 5 -7 17 17 44 -4 29 -22 -7 -8
-6 -12 4 -12 14 0 16 21 3 33 -4 4 -7 12 -7 18 0 6 4 6 11 -1 6 -6 17 -9 24
-6 14 5 15 -13 3 -33 -4 -6 -1 -11 7 -11 8 0 12 8 10 19 -3 15 1 18 18 16 16
-2 22 2 21 15 -2 14 1 15 12 6 8 -6 14 -8 14 -3 0 5 5 2 10 -6 8 -13 10 -13
10 1 0 17 26 19 50 4 13 -8 13 -6 1 8 -12 15 -11 17 3 17 9 0 16 5 16 11 0 5
4 8 9 5 5 -3 14 0 20 8 9 11 9 15 -1 20 -7 3 -2 3 11 0 17 -5 21 -3 16 6 -5 9
-4 11 3 6 7 -4 12 -2 12 4 0 6 5 8 10 5 6 -3 10 1 10 10 0 10 5 13 12 9 8 -5
9 -2 5 10 -6 14 -3 17 10 12 10 -4 14 -4 11 0 -4 3 2 14 14 23 11 10 21 29 21
44 0 15 3 27 8 27 5 0 9 4 9 10 0 5 -8 7 -17 5 -10 -3 -4 1 12 9 17 8 23 15
15 16 -10 0 -16 9 -16 24 0 14 4 22 8 20 5 -3 6 -10 3 -15 -10 -15 2 -10 16 8
12 14 12 16 0 8 -11 -6 -13 -4 -8 9 4 10 3 15 -4 11 -11 -7 -8 32 4 52 4 6 2
15 -4 19 -8 5 -9 3 -4 -6 5 -9 4 -11 -3 -6 -16 10 -15 14 9 27 12 6 19 7 17 2
-3 -4 5 -18 18 -31 13 -12 24 -18 24 -12 0 5 5 10 10 10 6 0 9 -3 9 -7 -3 -21
3 -30 19 -30 36 0 43 -3 36 -15 -6 -10 -4 -10 7 0 19 17 29 15 22 -5 -5 -15
-3 -14 10 2 11 13 19 16 24 10 11 -15 53 -16 53 -2 0 7 4 6 10 -3 7 -12 10
-12 10 -1 0 7 6 11 13 8 7 -3 19 4 25 14 11 18 10 19 -11 14 -17 -5 -26 -2
-31 11 -5 13 -3 14 6 6 7 -5 25 -9 41 -7 17 2 25 -1 20 -7 -4 -8 5 -9 29 -5
20 3 41 1 47 -4 8 -6 8 -5 1 3 -12 14 -13 29 -2 26 4 -1 17 4 29 12 23 15 23
15 -20 38 -23 13 -33 20 -22 16 11 -3 26 -7 33 -7 6 0 12 -4 12 -9 0 -4 7 -8
15 -8 8 0 15 8 15 18 0 15 -2 15 -11 2 -8 -11 -9 -9 -4 10 6 20 5 23 -6 13 -7
-7 -18 -13 -24 -13 -5 0 1 9 15 20 20 15 21 20 8 20 -22 0 -27 11 -17 35 9 19
9 19 5 -2 -2 -15 2 -23 16 -27 20 -5 58 12 58 26 0 11 -18 10 -25 -2 -3 -5
-12 -10 -18 -10 -7 0 0 10 16 21 15 11 27 26 27 32 0 8 -4 7 -12 -1 -7 -7 -16
-12 -21 -12 -5 0 2 10 17 21 15 12 30 19 33 15 4 -3 1 -6 -5 -6 -6 0 -9 -7 -5
-15 3 -9 13 -15 21 -13 15 3 18 15 23 90 1 16 7 25 13 22 6 -3 0 4 -13 15 -21
19 -20 26 1 22 18 -2 -6 28 -25 32 -20 4 -19 4 3 6 17 1 21 4 12 9 -7 5 -14
23 -15 40 -2 25 -6 30 -22 28 -11 -2 -18 -10 -17 -17 2 -8 0 -10 -4 -6 -16 16
-12 35 7 32 10 -2 19 0 19 6 0 5 -4 9 -10 9 -5 0 -10 7 -10 15 0 8 -5 15 -11
15 -5 0 -7 4 -4 10 3 6 -1 7 -10 4 -11 -5 -14 -2 -8 12 5 13 3 16 -10 11 -12
-5 -17 -1 -17 13 0 11 -3 19 -7 19 -22 -4 -33 3 -33 19 0 14 -2 15 -10 2 -7
-11 -10 -11 -10 -2 0 7 -4 10 -10 7 -5 -3 -10 -1 -10 5 0 6 -6 8 -12 5 -7 -4
-4 0 7 9 11 8 25 19 30 24 6 5 15 7 20 5 12 -3 77 52 69 60 -3 3 4 8 15 12 13
4 18 13 16 26 -4 18 -2 19 12 7 15 -11 16 -11 10 5 -4 11 -1 20 7 23 8 3 17
12 20 21 5 11 2 14 -11 9 -16 -5 -16 -5 1 8 11 9 15 20 10 28 -6 9 -3 9 10 -1
15 -12 17 -12 14 0 -2 8 -7 17 -13 21 -6 5 -5 8 3 8 6 0 12 7 12 15 0 8 -5 15
-11 15 -5 0 -7 5 -4 10 4 6 11 7 17 4 7 -4 8 -2 4 4 -4 6 -2 20 4 31 7 14 7
22 -2 27 -7 5 -8 3 -3 -6 5 -9 4 -11 -3 -6 -8 4 -8 15 -2 31 7 18 6 23 -4 19
-7 -3 -13 2 -13 10 0 9 6 12 16 8 14 -5 14 -4 1 10 -8 9 -18 14 -22 11 -5 -2
-4 7 2 21 8 21 6 24 -10 21 -11 -2 -22 1 -26 6 -3 5 -2 8 3 7 8 -3 13 5 13 23
0 5 -4 7 -10 4 -9 -5 -15 15 -11 38 0 4 -9 7 -20 7 -19 0 -20 2 -8 17 8 10 9
14 2 10 -6 -4 -14 -3 -18 3 -4 6 -12 7 -18 3 -7 -4 -6 1 2 11 8 9 10 16 5 15
-5 -1 -21 4 -36 11 -30 14 -38 40 -12 40 8 0 13 4 10 9 -3 5 1 12 10 15 10 4
13 2 9 -7 -4 -6 1 -3 9 8 9 11 14 26 11 35 -5 12 -4 12 6 3 10 -10 17 -7 35
12 12 13 26 21 30 17 5 -4 2 2 -6 12 -8 11 -10 17 -4 13 12 -7 38 39 29 53 -3
4 3 7 13 6 11 -1 16 5 14 17 -2 10 3 26 10 35 11 13 11 15 -4 9 -10 -3 -20 -1
-24 5 -4 6 -3 8 4 4 13 -8 27 11 27 37 0 10 7 22 15 28 12 9 12 10 -3 5 -15
-5 -17 -2 -12 15 4 13 3 19 -2 16 -5 -4 -10 1 -10 9 0 8 6 13 14 10 10 -4 11
-1 5 12 -5 9 -8 25 -7 35 2 9 -1 15 -5 12 -5 -3 -8 3 -8 12 1 26 -5 46 -20 61
-7 8 -9 19 -5 25 4 8 1 7 -9 -1 -13 -10 -18 -10 -24 -1 -4 7 -3 9 4 5 6 -4 10
1 9 13 -1 11 -6 17 -14 14 -8 -3 -13 -2 -12 3 4 22 -2 34 -16 34 -8 0 -15 7
-15 16 0 8 -3 13 -7 11 -5 -2 -21 9 -37 25 -20 19 -24 26 -11 22 14 -6 16 -4
10 7 -7 11 -5 11 10 -1 17 -14 18 -13 12 2 -3 10 -3 17 1 15 9 -3 48 25 53 38
2 6 6 10 9 9 3 -1 13 7 23 17 17 19 11 26 -9 12 -5 -5 -1 -1 8 9 10 9 18 21
18 28 0 6 5 8 12 4 7 -5 8 -3 2 7 -12 20 -14 40 -3 33 5 -3 7 -10 4 -15 -4 -5
-2 -9 3 -9 6 0 13 7 16 16 3 8 2 12 -4 9 -16 -10 -11 11 5 25 9 7 13 15 10 18
-3 3 1 12 8 20 8 10 8 13 1 9 -16 -9 -25 16 -12 34 8 11 9 10 4 -3 -3 -10 -1
-18 4 -18 5 0 8 19 6 43 -2 35 -5 42 -22 40 -10 -1 -13 0 -6 3 6 3 9 10 6 15
-3 6 -12 5 -22 -3 -15 -12 -16 -11 -4 4 13 16 16 16 40 1 l27 -17 -20 24 c-11
13 -14 20 -7 16 6 -4 12 -2 12 3 0 6 -4 11 -10 11 -5 0 -9 3 -8 8 1 4 -2 24
-6 44 -5 24 -12 35 -21 32 -7 -3 -15 2 -18 10 -4 11 -1 13 10 9 11 -4 14 -2 9
5 -4 7 -14 12 -22 12 -8 0 -14 5 -14 11 0 5 4 7 10 4 6 -3 7 1 4 9 -3 9 -13
16 -21 16 -8 0 -11 5 -7 12 5 8 2 9 -11 4 -15 -5 -16 -4 -6 8 15 17 1 30 -39
35 -5 0 -10 6 -10 12 0 5 5 7 12 3 7 -4 8 -3 4 4 -4 6 -13 9 -20 6 -7 -3 -16
2 -20 11 -3 10 -13 15 -20 12 -8 -3 -16 -2 -18 3 -2 5 -10 10 -18 12 -8 2 -20
8 -28 15 -7 7 -19 10 -27 7 -9 -4 -15 0 -15 7 0 8 -6 5 -15 -7 -15 -18 -15
-18 -8 0 4 13 3 17 -5 12 -6 -3 -13 -3 -16 2 -7 12 -69 2 -78 -12 -5 -7 -8 -6
-8 4 0 13 -1 13 -10 0 -8 -12 -10 -12 -10 -1 0 10 -3 11 -14 2 -11 -9 -15 -9
-19 1 -4 10 -6 10 -6 1 -1 -7 -10 -13 -21 -13 -11 0 -20 -4 -20 -10 0 -5 -9
-10 -21 -10 -13 0 -18 -4 -13 -12 4 -7 3 -8 -4 -4 -6 4 -20 -1 -31 -11 -22
-19 -55 -27 -45 -11 11 17 13 77 3 83 -5 4 -9 17 -9 31 0 13 -5 24 -11 24 -5
0 -8 4 -5 9 6 8 -31 63 -46 69 -5 2 -6 7 -3 12 3 5 -4 11 -15 15 -11 3 -20 13
-20 21 0 13 -12 18 -32 15 -5 0 -8 4 -8 9 0 6 -9 10 -19 10 -11 0 -27 10 -35
22 -9 13 -16 17 -16 9 0 -11 -3 -11 -16 0 -13 10 -17 10 -25 -2 -7 -12 -9 -12
-9 0 0 8 -3 12 -6 8 -3 -3 -17 -2 -30 3 -13 5 -24 6 -24 1 0 -9 -31 -8 -48 3
-7 4 -14 1 -18 -8z m740 -324 c3 -5 -1 -9 -9 -9 -8 0 -12 4 -9 9 3 4 7 8 9 8
2 0 6 -4 9 -8z m79 -17 c-3 -9 -8 -14 -10 -11 -3 3 -2 9 2 15 9 16 15 13 8 -4z
m-83 -39 c0 -2 -8 -10 -17 -17 -16 -13 -17 -12 -4 4 13 16 21 21 21 13z m90
-20 c0 -3 -4 -8 -10 -11 -5 -3 -10 -1 -10 4 0 6 5 11 10 11 6 0 10 -2 10 -4z
m70 -1 c0 -2 -6 -8 -13 -14 -10 -8 -14 -7 -14 2 0 8 6 14 14 14 7 0 13 -1 13
-2z m44 -23 c3 -5 -1 -9 -9 -9 -8 0 -12 4 -9 9 3 4 7 8 9 8 2 0 6 -4 9 -8z
m-13 -30 c-7 -2 -18 1 -23 6 -8 8 -4 9 13 5 13 -4 18 -8 10 -11z m-41 -6 c0
-3 -4 -8 -10 -11 -5 -3 -10 -1 -10 4 0 6 5 11 10 11 6 0 10 -2 10 -4z m45 -25
c-9 -8 -36 -10 -30 -2 2 4 11 8 20 8 8 0 13 -3 10 -6z m-49 -21 c0 -12 -4 -16
-9 -11 -5 5 -6 14 -3 20 10 15 12 14 12 -9z m-36 0 c0 -5 -2 -10 -4 -10 -3 0
-8 5 -11 10 -3 6 -1 10 4 10 6 0 11 -4 11 -10z m153 -15 c-3 -9 -8 -14 -10
-11 -3 3 -2 9 2 15 9 16 15 13 8 -4z m8 -28 c-10 -9 -11 -8 -5 6 3 10 9 15 12
12 3 -3 0 -11 -7 -18z m-181 9 c0 -2 -7 -7 -16 -10 -8 -3 -12 -2 -9 4 6 10 25
14 25 6z m159 -19 c0 -9 -2 -8 -6 1 -2 6 -10 9 -15 6 -7 -4 -8 -2 -4 5 9 13
26 5 25 -12z m34 -12 c-3 -9 -8 -14 -10 -11 -3 3 -2 9 2 15 9 16 15 13 8 -4z
m-80 -25 c10 -12 9 -12 -4 -2 -9 6 -18 9 -21 6 -3 -3 -9 -1 -12 4 -9 15 22 8
37 -8z m-677 -7 c-2 -14 -9 -17 -28 -11 -15 5 -3 25 15 25 8 0 14 -6 13 -14z
m711 -25 c-3 -8 -6 -5 -6 6 -1 11 2 17 5 13 3 -3 4 -12 1 -19z m-52 2 c3 -5 1
-10 -4 -10 -6 0 -11 5 -11 10 0 6 2 10 4 10 3 0 8 -4 11 -10z m42 -65 c0 -8
-4 -12 -9 -9 -5 3 -6 10 -3 15 9 13 12 11 12 -6z m-77 -9 c0 -3 -4 -8 -10 -11
-5 -3 -10 -1 -10 4 0 6 5 11 10 11 6 0 10 -2 10 -4z m114 -14 c2 -4 -4 -8 -14
-8 -10 0 -16 4 -14 8 3 4 9 8 14 8 5 0 11 -4 14 -8z m19 -37 c4 -8 3 -16 -1
-19 -4 -3 -9 4 -9 15 -2 23 3 25 10 4z m-103 -51 c0 -8 -19 -13 -24 -6 -3 5 1
9 9 9 8 0 15 -2 15 -3z m54 -6 c-2 -3 -13 -6 -24 -5 -24 2 -18 13 9 13 11 0
18 -4 15 -8z m-67 -67 c0 -11 -5 -18 -9 -15 -4 3 -5 11 -1 19 7 21 12 19 10
-4z m-1627 -18 c0 3 14 -7 32 -23 17 -16 30 -31 27 -32 -26 -17 -54 -30 -68
-33 -13 -2 -17 4 -15 28 1 17 -2 40 -6 53 -11 28 1 40 17 18 7 -10 13 -15 13
-11z m398 -58 c-3 -3 -9 2 -12 12 -6 14 -5 15 5 6 7 -7 10 -15 7 -18z m1327
-244 c3 -5 2 -12 -3 -15 -5 -3 -9 1 -9 9 0 17 3 19 12 6z m-35 -11 c0 -5 -5
-10 -11 -10 -5 0 -7 5 -4 10 3 6 8 10 11 10 2 0 4 -4 4 -10z m-2260 -30 c6
-11 17 -20 25 -20 26 0 16 -29 -14 -44 -27 -14 -29 -14 -34 4 -3 12 -1 18 5
14 6 -4 6 1 -1 13 -6 11 -7 23 -4 27 3 3 1 6 -5 6 -7 0 -12 5 -12 10 0 18 29
11 40 -10z m2305 -10 c-3 -5 -12 -10 -18 -10 -7 0 -6 4 3 10 19 12 23 12 15 0z
m-49 -55 c-1 -8 -5 -17 -8 -21 -5 -4 -4 16 1 34 3 9 9 -1 7 -13z m-36 -5 c0
-5 -2 -10 -4 -10 -3 0 -8 5 -11 10 -3 6 -1 10 4 10 6 0 11 -4 11 -10z m17 -92
c2 -17 0 -19 -7 -8 -5 8 -6 18 -4 22 8 12 10 10 11 -14z m-2 -47 c3 -5 2 -12
-3 -15 -5 -3 -9 1 -9 9 0 17 3 19 12 6z m-2429 -187 c-3 -8 0 -14 6 -14 7 0 7
-4 -1 -14 -9 -11 -9 -16 0 -21 8 -6 8 -10 -2 -16 -8 -4 -19 -3 -26 3 -7 6 -13
7 -13 3 0 -4 -6 -2 -14 4 -7 6 -25 12 -39 13 -14 1 -23 7 -20 12 4 5 -1 7 -11
3 -10 -4 -15 -3 -11 4 4 5 16 7 27 3 11 -3 18 -2 15 2 -3 5 7 10 21 11 15 0
28 5 29 10 2 5 13 9 24 10 14 1 19 -3 15 -13z m1960 -41 c-10 -10 -19 5 -10
18 6 11 8 11 12 0 2 -7 1 -15 -2 -18z m474 -207 c0 -3 -4 -8 -10 -11 -5 -3
-10 -1 -10 4 0 6 5 11 10 11 6 0 10 -2 10 -4z m-3 -41 c0 -8 -4 -12 -9 -9 -5
3 -6 10 -3 15 9 13 12 11 12 -6z m-2251 -79 c1 -7 -5 -13 -12 -13 -15 0 -19
19 -7 30 8 8 16 1 19 -17z m1604 5 c0 -10 -7 -18 -15 -18 -8 0 -15 7 -15 14 0
8 -5 11 -12 7 -6 -4 -8 -3 -5 2 11 18 47 14 47 -5z m670 -91 c0 -5 -5 -10 -11
-10 -5 0 -7 5 -4 10 3 6 8 10 11 10 2 0 4 -4 4 -10z m-45 -40 c3 -5 1 -10 -4
-10 -6 0 -11 5 -11 10 0 6 2 10 4 10 3 0 8 -4 11 -10z m-394 -197 c2 1 -5 -6
-16 -15 -11 -9 -22 -15 -26 -13 -3 3 -16 -5 -27 -16 -17 -15 -22 -16 -22 -5 0
8 5 18 10 21 6 4 8 11 4 16 -3 6 -7 21 -9 35 l-2 24 42 -24 c23 -14 44 -24 46
-23z m-818 -9 c-6 -16 -16 -11 -19 11 -1 8 4 11 11 8 8 -2 11 -11 8 -19z
m1181 -193 c3 -4 -4 -7 -14 -6 -27 2 -33 10 -10 12 11 1 22 -2 24 -6z m-123
-18 c13 -16 12 -17 -3 -4 -17 13 -22 21 -14 21 2 0 10 -8 17 -17z m176 -5 c-3
-8 -6 -5 -6 6 -1 11 2 17 5 13 3 -3 4 -12 1 -19z m-14 -12 c4 -10 1 -13 -8 -9
-8 3 -12 9 -9 14 7 12 11 11 17 -5z m-63 -6 c0 -5 -5 -10 -11 -10 -5 0 -7 5
-4 10 3 6 8 10 11 10 2 0 4 -4 4 -10z m50 -14 c0 -2 -8 -10 -17 -17 -16 -13
-17 -12 -4 4 13 16 21 21 21 13z m45 -16 c-3 -5 -12 -10 -18 -10 -7 0 -6 4 3
10 19 12 23 12 15 0z m-2289 -12 c5 -7 3 -8 -6 -3 -8 5 -11 4 -7 -2 4 -6 20
-16 36 -23 26 -10 28 -14 18 -31 -7 -11 -17 -17 -24 -15 -7 3 -10 -1 -6 -10 3
-9 -1 -14 -12 -14 -9 0 -14 -4 -10 -9 3 -5 0 -13 -6 -17 -8 -4 -9 -3 -5 4 4 7
3 12 -3 12 -12 0 -2 32 13 42 8 5 8 8 0 8 -6 0 -12 12 -12 28 0 40 10 53 24
30z m1639 -27 c-1 -17 -4 -34 -8 -37 -4 -4 -2 -13 4 -21 6 -7 8 -13 3 -13 -5
0 -2 -5 6 -10 9 -6 10 -10 3 -10 -7 0 -23 10 -35 23 -13 12 -30 23 -38 25 -16
4 -30 22 -29 37 0 6 3 4 6 -2 2 -7 9 -13 14 -13 6 0 7 5 4 10 -5 9 16 15 38
11 5 -1 6 3 2 9 -3 5 1 10 10 10 10 0 13 5 9 12 -4 6 -3 8 3 5 5 -3 9 -20 8
-36z m532 24 c0 -8 -4 -12 -9 -9 -5 3 -6 10 -3 15 9 13 12 11 12 -6z m-946
-30 c5 4 9 0 9 -7 0 -9 3 -9 10 2 9 14 10 12 10 -15 0 -3 -3 -4 -6 -2 -3 1
-10 -6 -15 -15 -18 -33 -38 -21 -34 20 4 46 6 52 12 29 2 -9 9 -15 14 -12z
m1061 8 c19 -17 24 -43 8 -43 -5 0 -7 6 -4 14 3 8 -5 21 -18 30 -12 9 -18 16
-14 16 5 0 18 -7 28 -17z m-15 -34 c-3 -12 2 -20 15 -25 11 -3 17 -8 15 -11
-12 -11 -40 17 -41 40 -1 14 2 23 7 20 5 -3 7 -14 4 -24z m-100 6 c0 -8 -4
-12 -9 -9 -5 3 -6 10 -3 15 9 13 12 11 12 -6z m43 -7 c0 -4 -4 -8 -9 -8 -6 0
-12 4 -15 8 -3 5 1 9 9 9 8 0 15 -4 15 -9z m40 -37 c0 -4 -6 -8 -14 -8 -8 0
-12 6 -9 14 5 13 23 9 23 -6z m-160 -1 c0 -5 -2 -10 -4 -10 -3 0 -8 5 -11 10
-3 6 -1 10 4 10 6 0 11 -4 11 -10z m120 -20 c0 -5 -4 -10 -10 -10 -5 0 -10 5
-10 10 0 6 5 10 10 10 6 0 10 -4 10 -10z m-69 -33 c-10 -9 -11 -8 -5 6 3 10 9
15 12 12 3 -3 0 -11 -7 -18z m67 -12 c-3 -3 -9 2 -12 12 -6 14 -5 15 5 6 7 -7
10 -15 7 -18z m-48 -67 c-8 -7 -12 -9 -8 -4 4 5 2 18 -4 30 -10 20 -10 20 8 4
16 -15 16 -20 4 -30z m-190 28 c0 -2 -8 -10 -17 -17 -16 -13 -17 -12 -4 4 13
16 21 21 21 13z m160 -26 c-6 -11 -13 -20 -16 -20 -2 0 0 9 6 20 6 11 13 20
16 20 2 0 0 -9 -6 -20z m-206 -16 c3 -8 2 -12 -4 -9 -6 3 -10 10 -10 16 0 14
7 11 14 -7z m126 6 c0 -5 -2 -10 -4 -10 -3 0 -8 5 -11 10 -3 6 -1 10 4 10 6 0
11 -4 11 -10z m40 -19 c0 -6 -4 -12 -8 -15 -5 -3 -9 1 -9 9 0 8 4 15 9 15 4 0
8 -4 8 -9z m50 -15 c0 -2 -7 -6 -15 -10 -8 -3 -15 -1 -15 4 0 6 7 10 15 10 8
0 15 -2 15 -4z m23 -23 c-6 -16 -5 -17 13 -3 18 14 18 14 5 -3 -8 -9 -16 -15
-19 -12 -3 3 -14 -3 -24 -12 -17 -16 -20 -16 -35 0 -11 11 -13 17 -5 17 7 0
12 -4 12 -10 0 -5 5 -10 11 -10 6 0 9 7 6 15 -4 8 -1 17 5 21 7 4 8 3 4 -4 -4
-7 -2 -12 3 -12 6 0 11 7 11 15 0 8 4 15 10 15 5 0 6 -8 3 -17z m-182 -10 c13
-16 12 -17 -3 -4 -17 13 -22 21 -14 21 2 0 10 -8 17 -17z m96 -5 c-3 -8 -6 -5
-6 6 -1 11 2 17 5 13 3 -3 4 -12 1 -19z m-150 -23 c0 -8 -4 -12 -9 -9 -5 3 -6
10 -3 15 9 13 12 11 12 -6z m57 -6 c3 -3 -4 -5 -14 -6 -11 -1 -22 2 -24 6 -5
8 30 8 38 0z m-928 -22 c1 -9 -3 -17 -9 -17 -8 0 -9 -3 -2 -8 11 -7 18 -52 9
-52 -12 0 -69 46 -71 58 -2 6 0 11 5 11 21 -4 32 2 26 14 -6 9 -4 9 8 -1 13
-10 18 -10 24 -1 4 8 3 9 -4 5 -7 -4 -12 -2 -12 4 0 18 23 6 26 -13z m-403
-12 c8 -8 18 -11 23 -7 5 4 2 -1 -5 -11 -11 -14 -16 -15 -22 -5 -6 9 -10 8
-15 -5 -3 -9 -10 -17 -15 -17 -6 0 -6 7 -1 18 5 9 7 23 5 30 -6 17 12 15 30
-3z m-739 -171 c3 -8 2 -12 -4 -9 -6 3 -10 10 -10 16 0 14 7 11 14 -7z m1791
-3 c-9 -8 -36 -10 -30 -2 2 4 11 8 20 8 8 0 13 -3 10 -6z m-100 -51 c3 -5 1
-10 -4 -10 -6 0 -11 5 -11 10 0 6 2 10 4 10 3 0 8 -4 11 -10z m-184 -33 c-10
-9 -11 -8 -5 6 3 10 9 15 12 12 3 -3 0 -11 -7 -18z m145 -9 c3 -4 -1 -5 -10
-4 -8 1 -18 5 -22 8 -3 4 1 5 10 4 8 -1 18 -5 22 -8z m-1092 -80 c4 -22 1 -28
-14 -28 -23 0 -33 26 -19 52 13 24 26 14 33 -24z m-48 2 c0 -12 -4 -16 -9 -11
-5 5 -6 14 -3 20 10 15 12 14 12 -9z m1009 0 c3 -6 -1 -7 -9 -4 -18 7 -21 14
-7 14 6 0 13 -4 16 -10z m-1826 -213 c-2 -1 -13 -9 -24 -17 -19 -14 -19 -14
-6 3 7 9 18 17 24 17 6 0 8 -1 6 -3z m1086 -47 c-3 -5 -12 -10 -18 -10 -7 0
-6 4 3 10 19 12 23 12 15 0z m-85 -20 c0 -5 -5 -10 -11 -10 -5 0 -7 5 -4 10 3
6 8 10 11 10 2 0 4 -4 4 -10z m340 0 c0 -5 -5 -10 -11 -10 -5 0 -7 5 -4 10 3
6 8 10 11 10 2 0 4 -4 4 -10z m60 -5 c-7 -9 -15 -13 -19 -10 -3 3 1 10 9 15
21 14 24 12 10 -5z m-1042 -100 c-3 -3 -9 2 -12 12 -6 14 -5 15 5 6 7 -7 10
-15 7 -18z m115 10 c-3 -9 -8 -14 -10 -11 -3 3 -2 9 2 15 9 16 15 13 8 -4z
m-59 -63 c3 -5 -1 -9 -9 -9 -8 0 -12 4 -9 9 3 4 7 8 9 8 2 0 6 -4 9 -8z m50 0
c3 -5 -1 -9 -9 -9 -8 0 -12 4 -9 9 3 4 7 8 9 8 2 0 6 -4 9 -8z m449 -17 c-3
-9 -8 -14 -10 -11 -3 3 -2 9 2 15 9 16 15 13 8 -4z m-79 -3 c3 -5 -1 -9 -9 -9
-8 0 -12 4 -9 9 3 4 7 8 9 8 2 0 6 -4 9 -8z m46 -2 c0 -5 -5 -10 -11 -10 -5 0
-7 5 -4 10 3 6 8 10 11 10 2 0 4 -4 4 -10z m64 2 c3 -5 -1 -9 -9 -9 -8 0 -12
4 -9 9 3 4 7 8 9 8 2 0 6 -4 9 -8z m-540 -54 c4 3 4 -2 0 -13 -5 -11 -9 -14
-12 -7 -2 7 -9 9 -14 6 -7 -4 -8 -2 -4 5 4 6 4 18 -1 24 -4 7 -1 5 8 -5 9 -9
20 -14 23 -10z m353 3 c0 -11 -5 -18 -9 -15 -4 3 -5 11 -1 19 7 21 12 19 10
-4z m79 2 c-2 -9 -9 -19 -17 -21 -11 -3 -11 -1 1 7 8 6 11 11 7 11 -5 0 -5 5
-2 10 9 15 14 12 11 -7z m-360 -28 c0 -16 -3 -22 -13 -18 -8 3 -10 9 -5 12 5
3 8 14 6 24 -1 11 0 16 4 12 3 -3 7 -17 8 -30z m-31 15 c3 -6 -1 -7 -9 -4 -18
7 -21 14 -7 14 6 0 13 -4 16 -10z m245 6 c0 -2 -8 -10 -17 -17 -16 -13 -17
-12 -4 4 13 16 21 21 21 13z m181 -19 c-10 -9 -11 -8 -5 6 3 10 9 15 12 12 3
-3 0 -11 -7 -18z m-335 -12 c-1 -8 -6 -18 -11 -22 -4 -5 -5 -2 0 6 6 11 4 13
-11 8 -18 -7 -18 -6 -2 6 10 8 14 18 10 22 -4 5 -2 5 5 2 6 -4 10 -14 9 -22z
m184 4 c0 -5 -7 -9 -16 -9 -9 0 -12 -5 -8 -12 5 -7 3 -8 -6 -3 -10 6 -10 11 3
20 9 7 13 16 9 20 -4 5 -1 5 6 1 6 -4 12 -11 12 -17z m-286 -5 c3 -8 2 -12 -4
-9 -6 3 -10 10 -10 16 0 14 7 11 14 -7z m381 -2 c-3 -3 -11 0 -18 7 -9 10 -8
11 6 5 10 -3 15 -9 12 -12z m-190 -20 c-3 -3 -11 0 -18 7 -9 10 -8 11 6 5 10
-3 15 -9 12 -12z m55 -7 c14 -19 14 -19 -2 -6 -10 7 -18 18 -18 24 0 6 1 8 3
6 1 -2 9 -13 17 -24z m69 2 c0 -9 -2 -8 -6 1 -2 6 -10 9 -15 6 -7 -4 -8 -2 -4
5 9 13 26 5 25 -12z m51 2 c0 -5 -4 -9 -10 -9 -5 0 -10 5 -10 11 0 5 -5 7 -12
3 -7 -4 -8 -3 -4 4 7 12 36 5 36 -9z m-238 -11 c-17 -17 -15 -33 3 -18 10 9
15 9 15 1 0 -6 -5 -11 -12 -11 -6 0 -3 -9 7 -20 18 -20 18 -21 0 -14 -14 6
-16 4 -10 -6 5 -8 4 -11 -3 -6 -6 4 -8 14 -5 24 6 16 5 16 -14 -1 -18 -15 -21
-16 -26 -3 -4 10 -1 13 7 10 7 -3 13 2 14 11 1 8 3 22 4 30 1 8 5 12 10 9 4
-3 8 0 8 7 0 7 3 9 7 6 4 -4 1 -13 -5 -19z m-62 2 c0 -5 -4 -10 -10 -10 -5 0
-10 5 -10 10 0 6 5 10 10 10 6 0 10 -4 10 -10z m100 0 c0 -5 -2 -10 -4 -10 -3
0 -8 5 -11 10 -3 6 -1 10 4 10 6 0 11 -4 11 -10z m56 -2 c4 -7 3 -8 -4 -4 -7
4 -12 2 -12 -3 0 -6 -8 -11 -17 -11 -15 0 -14 2 3 15 23 18 21 17 30 3z m-153
-22 c22 6 22 6 2 -9 -11 -9 -22 -11 -23 -6 -2 5 -7 7 -11 5 -4 -3 -8 5 -8 17
-2 20 -1 20 8 4 7 -12 17 -16 32 -11z m220 7 c-3 -7 -9 -10 -14 -7 -14 8 -11
21 5 21 8 0 12 -6 9 -14z m49 -33 c5 0 6 -5 2 -11 -4 -8 -12 -3 -20 12 -7 13
-13 18 -14 10 0 -8 -2 -12 -5 -9 -3 3 -2 13 2 23 6 17 7 17 16 -3 6 -12 14
-22 19 -22z"/>
<path d="M3564 1663 c4 -4 16 -8 28 -10 28 -4 18 6 -12 12 -12 2 -20 1 -16 -2z"/>
<path d="M2810 4613 c0 -6 -12 -9 -27 -7 -15 1 -34 -3 -42 -9 -8 -7 -17 -11
-20 -10 -12 5 -41 -8 -41 -18 0 -6 -4 -7 -10 -4 -5 3 -10 1 -10 -4 0 -6 -7
-11 -15 -11 -8 0 -15 -3 -15 -8 0 -4 -11 -19 -24 -33 -19 -21 -32 -45 -41 -79
-1 -3 -5 -13 -9 -23 -5 -9 -6 -26 -3 -37 3 -11 0 -20 -6 -20 -7 0 -5 -5 3 -10
8 -5 10 -10 4 -10 -13 0 -13 -32 -1 -41 5 -3 10 -12 11 -20 6 -31 33 -76 64
-107 17 -18 32 -29 32 -25 0 4 5 0 11 -10 6 -9 14 -15 19 -12 5 3 11 1 15 -5
4 -6 11 -8 16 -5 5 4 9 2 9 -3 0 -6 14 -9 30 -8 17 1 30 -1 30 -4 0 -3 9 -6
20 -6 11 0 20 4 20 9 0 5 8 3 17 -4 11 -10 14 -10 9 -1 -5 8 1 12 18 12 14 0
26 5 26 11 0 5 4 8 10 4 11 -7 92 49 84 58 -3 3 4 10 15 17 12 6 21 17 21 25
0 8 5 15 11 15 6 0 9 7 5 15 -3 8 -1 15 5 15 6 0 8 4 4 9 -3 5 -1 12 3 15 14
9 5 137 -11 164 -5 6 -5 12 0 12 4 0 0 5 -9 11 -10 5 -18 17 -18 24 0 8 -5 15
-11 15 -5 0 -7 5 -4 10 3 6 -1 10 -9 10 -9 0 -21 9 -28 20 -7 11 -20 20 -29
20 -8 0 -24 8 -35 18 -11 11 -31 18 -44 17 -14 -1 -31 2 -37 8 -9 6 -13 6 -13
0z"/>
<path d="M1635 4540 c-3 -5 -11 -8 -16 -5 -13 9 -11 -9 4 -25 6 -8 2 -6 -11 4
-12 11 -25 16 -29 12 -4 -4 -1 -11 7 -16 9 -6 10 -10 3 -10 -6 0 -15 5 -18 10
-7 12 -25 4 -25 -11 0 -6 4 -8 8 -5 5 3 9 -1 9 -8 0 -7 -6 -13 -13 -13 -7 0
-13 3 -12 6 2 18 -4 21 -17 7 -16 -15 -21 -31 -7 -22 4 2 14 0 22 -5 12 -7 11
-8 -5 -6 -11 1 -27 7 -35 11 -8 5 -12 6 -8 1 4 -4 3 -17 -3 -28 -9 -15 -8 -18
3 -12 7 5 3 -3 -9 -16 -18 -20 -20 -28 -10 -39 7 -7 7 -10 1 -7 -8 5 -11 -4
-10 -26 2 -18 7 -31 14 -29 7 1 12 -2 12 -8 0 -5 -4 -10 -8 -10 -5 0 -9 -7 -9
-15 0 -8 3 -12 7 -10 4 2 14 -12 24 -31 11 -24 21 -34 31 -30 8 3 14 0 12 -7
-1 -7 4 -11 11 -9 6 1 12 -3 12 -9 0 -6 9 -9 20 -6 12 3 20 0 20 -7 0 -7 7
-13 15 -13 8 0 15 5 15 11 0 7 3 7 8 1 10 -13 52 -15 52 -2 0 6 3 7 7 4 3 -4
15 1 26 10 15 13 18 14 13 3 -4 -8 2 -4 13 9 12 13 21 20 21 17 0 -3 8 2 18
12 11 9 17 20 16 23 -2 3 5 15 15 26 12 12 16 25 11 33 -4 7 -3 24 2 36 8 18
8 28 -3 41 -9 11 -10 14 -1 9 6 -4 12 -2 12 3 0 6 -5 11 -11 11 -5 0 -8 4 -4
9 3 5 1 12 -5 16 -6 4 -8 11 -5 16 4 5 -1 9 -10 9 -9 0 -13 5 -10 10 3 6 1 10
-4 10 -6 0 -11 7 -11 15 0 9 -6 12 -17 8 -12 -5 -14 -3 -8 7 6 10 3 12 -13 8
-16 -4 -19 -2 -15 10 5 11 2 14 -10 9 -9 -3 -19 -2 -22 3 -9 15 -37 12 -29 -2
4 -7 -2 -5 -13 5 -14 12 -23 15 -28 7z m19 -16 c3 -8 2 -12 -4 -9 -6 3 -10 10
-10 16 0 14 7 11 14 -7z m51 -24 c3 -5 1 -10 -4 -10 -6 0 -11 5 -11 10 0 6 2
10 4 10 3 0 8 -4 11 -10z m-101 -26 c3 -8 2 -12 -4 -9 -6 3 -10 10 -10 16 0
14 7 11 14 -7z m-60 -76 c-3 -4 -11 -5 -19 -1 -21 7 -19 12 4 10 11 0 18 -5
15 -9z m39 -33 c-7 -21 -12 -19 -10 4 0 11 5 18 9 15 4 -3 5 -11 1 -19z"/>
<path d="M2220 4284 c0 -6 -13 -10 -29 -9 -16 1 -46 -9 -67 -22 -22 -12 -46
-26 -54 -30 -20 -10 -49 -45 -50 -61 0 -7 -4 -11 -9 -8 -8 5 -26 -40 -23 -56
1 -5 -2 -8 -7 -8 -5 0 -11 -23 -13 -50 -1 -28 -1 -50 2 -50 3 0 5 -10 6 -22 1
-32 7 -52 19 -60 6 -5 5 -8 -2 -8 -7 0 1 -13 19 -30 17 -16 27 -30 23 -30 -5
0 7 -11 26 -25 19 -13 39 -28 44 -33 27 -22 140 -38 160 -22 9 7 15 8 20 1 4
-7 19 -4 43 8 20 10 40 20 44 20 13 3 85 76 81 83 -2 3 3 12 10 20 8 7 13 23
12 35 -1 13 3 19 8 16 6 -4 8 0 4 10 -3 10 -3 17 1 17 5 0 8 18 8 40 0 22 -5
40 -11 40 -5 0 -3 5 5 10 8 5 10 10 3 10 -6 0 -10 8 -9 17 2 10 -3 24 -11 31
-7 8 -11 17 -8 22 3 4 -2 11 -11 14 -8 3 -13 10 -9 15 3 5 -4 12 -15 16 -11 4
-18 11 -15 16 4 5 -5 14 -19 21 -14 6 -26 15 -26 20 0 4 -9 8 -20 8 -11 0 -20
5 -20 10 0 6 -13 10 -29 10 -17 0 -33 5 -37 11 -4 8 -9 7 -15 -2 -8 -12 -11
-11 -19 1 -5 8 -10 10 -10 4z"/>
<path d="M1066 4212 c-4 -4 -13 -7 -18 -7 -6 0 -13 -6 -15 -12 -3 -7 0 -13 7
-13 6 0 8 5 4 11 -4 7 1 7 16 -1 15 -8 25 -9 32 -2 6 6 17 8 24 5 8 -3 14 -1
14 5 0 6 -8 9 -17 7 -10 -1 -23 1 -29 6 -6 5 -14 5 -18 1z"/>
<path d="M1002 4188 c-7 -7 -17 -14 -22 -14 -6 -1 -15 -2 -21 -3 -5 0 -7 -6
-3 -12 4 -8 9 -7 16 2 8 11 9 11 5 -1 -2 -8 -12 -14 -21 -14 -9 1 -16 -2 -16
-8 0 -5 -5 -6 -12 -2 -7 5 -8 3 -3 -6 4 -7 2 -16 -6 -20 -10 -7 -10 -11 1 -25
12 -15 12 -16 -5 -13 -10 1 -20 -4 -22 -12 -4 -13 -3 -13 6 0 9 12 11 11 11
-8 0 -13 -4 -21 -9 -17 -5 3 -13 0 -17 -6 -4 -8 -3 -9 4 -5 13 8 12 -20 0 -39
-4 -6 -3 -17 1 -24 6 -9 11 -10 15 -2 4 6 2 11 -5 11 -8 0 -9 3 0 13 6 8 7 18
3 23 -4 4 1 2 11 -5 10 -8 17 -9 17 -3 0 6 -5 14 -10 17 -6 4 -7 12 -3 18 4 7
8 15 8 19 0 3 4 10 9 15 5 5 6 2 1 -6 -6 -10 -4 -12 5 -6 9 5 11 4 6 -3 -5 -8
-2 -10 8 -6 13 5 12 9 -6 23 -15 12 -18 20 -10 25 7 4 12 0 12 -10 0 -23 13
-9 15 15 1 12 -3 17 -12 14 -7 -3 -13 0 -13 7 0 7 8 10 20 7 10 -3 24 1 31 9
6 8 15 11 20 8 5 -3 6 3 3 13 -5 14 -4 15 4 4 9 -12 13 -12 26 -2 13 11 20 10
42 -4 14 -9 22 -20 18 -23 -3 -4 -9 -1 -11 6 -3 6 -9 12 -15 12 -6 0 -8 -6 -5
-13 3 -8 1 -20 -4 -28 -6 -9 -8 -3 -5 19 2 21 0 31 -8 29 -6 -2 -10 -12 -8
-21 3 -14 -1 -16 -20 -10 -20 6 -21 5 -10 -9 7 -8 12 -19 11 -23 -3 -21 2 -35
11 -29 6 3 10 1 10 -4 0 -18 -17 -12 -34 12 -12 15 -16 17 -12 5 3 -10 1 -18
-4 -18 -6 0 -10 8 -10 17 0 9 -3 13 -7 9 -5 -4 -8 -24 -8 -44 0 -22 -5 -37
-12 -37 -6 0 -15 -3 -19 -7 -4 -5 -2 -8 6 -8 10 0 10 -3 0 -15 -10 -12 -10
-15 4 -15 9 0 16 -5 16 -11 0 -5 -4 -7 -10 -4 -5 3 -19 8 -30 10 -16 3 -20 -2
-20 -21 0 -13 4 -24 10 -24 5 0 9 5 7 11 -1 6 5 14 13 16 13 4 13 3 0 -6 -8
-6 -11 -11 -6 -11 5 0 3 -7 -4 -15 -10 -12 -10 -15 4 -15 9 0 16 -6 16 -14 0
-8 10 -18 23 -22 12 -4 24 -10 27 -14 8 -12 53 -24 46 -12 -3 6 -1 14 5 18 7
4 10 3 7 -2 -3 -5 4 -18 15 -29 11 -11 17 -14 13 -7 -7 12 5 16 33 13 7 -2 11
2 7 7 -3 5 5 8 17 7 29 -3 57 12 57 31 0 8 4 13 9 10 5 -3 16 5 25 19 9 14 13
25 9 25 -5 0 0 5 9 11 10 5 15 16 12 24 -4 8 -1 15 6 15 10 0 10 3 0 15 -7 8
-8 15 -3 15 13 0 10 37 -5 52 -8 8 -8 17 -1 31 7 12 7 17 1 13 -5 -3 -15 8
-22 24 -7 17 -17 33 -23 37 -5 3 -7 2 -4 -4 3 -5 0 -10 -7 -10 -8 0 -12 6 -9
13 2 6 -2 16 -9 20 -16 10 -88 12 -88 3 0 -4 -19 -6 -42 -5 -28 1 -42 6 -40
14 3 15 -1 15 -16 0z m-2 -27 c-5 -11 -15 -23 -21 -27 -6 -3 -3 5 6 20 20 30
30 35 15 7z m150 -27 c0 -1 -6 -6 -12 -10 -7 -4 -10 -4 -6 1 4 4 -3 16 -15 27
l-22 19 28 -17 c15 -9 27 -18 27 -20z m14 21 c11 -8 16 -15 10 -15 -5 0 -18 7
-28 15 -11 8 -16 15 -10 15 5 0 18 -7 28 -15z m2 -63 c0 -25 -4 -39 -13 -39
-8 0 -9 4 -3 12 5 6 7 20 6 30 -3 18 1 35 7 35 2 0 3 -17 3 -38z m58 22 c3 -8
2 -12 -4 -9 -6 3 -10 10 -10 16 0 14 7 11 14 -7z m-134 -11 c0 -5 -4 -14 -9
-22 -7 -10 -12 -11 -27 -1 -17 10 -17 11 -1 6 11 -3 20 0 23 9 6 16 14 20 14
8z m44 -25 c-3 -4 -11 -5 -19 -1 -21 7 -19 12 4 10 11 0 18 -5 15 -9z m-109
-46 c0 -6 -4 -12 -10 -11 -5 0 -12 -8 -16 -18 -5 -12 -7 -8 -6 15 0 25 4 32
16 30 9 -2 16 -9 16 -16z m62 12 c-3 -3 -12 -4 -19 -1 -8 3 -5 6 6 6 11 1 17
-2 13 -5z m-46 -37 c-10 -9 -11 -8 -5 6 3 10 9 15 12 12 3 -3 0 -11 -7 -18z
m49 8 c-7 -8 -17 -15 -23 -15 -6 0 -2 7 9 15 25 19 30 19 14 0z m38 -4 c-7 -9
-13 -18 -15 -20 -1 -2 -1 5 0 16 0 11 7 20 14 20 10 0 10 -4 1 -16z m-96 -25
c7 4 8 2 4 -5 -9 -13 -26 -5 -25 12 0 9 2 8 6 -1 2 -6 10 -9 15 -6z m-42 -17
c0 -6 -4 -7 -10 -4 -5 3 -10 11 -10 16 0 6 5 7 10 4 6 -3 10 -11 10 -16z m23
-19 c3 -11 1 -18 -4 -14 -5 3 -9 12 -9 20 0 20 7 17 13 -6z m92 -10 c3 -5 1
-10 -4 -10 -6 0 -11 5 -11 10 0 6 2 10 4 10 3 0 8 -4 11 -10z m65 5 c0 -7 -30
-13 -34 -7 -3 4 4 9 15 9 10 1 19 0 19 -2z m-180 -25 c0 -5 -4 -10 -10 -10 -5
0 -10 5 -10 10 0 6 5 10 10 10 6 0 10 -4 10 -10z m-26 -16 c3 -8 2 -12 -4 -9
-6 3 -10 10 -10 16 0 14 7 11 14 -7z m126 -44 c0 -5 -2 -10 -4 -10 -3 0 -8 5
-11 10 -3 6 -1 10 4 10 6 0 11 -4 11 -10z m100 1 c0 -5 -7 -12 -16 -15 -14 -5
-15 -4 -4 9 14 17 20 19 20 6z"/>
<path d="M1005 4030 c3 -5 8 -10 11 -10 2 0 4 5 4 10 0 6 -5 10 -11 10 -5 0
-7 -4 -4 -10z"/>
<path d="M987 4122 c-21 -23 -21 -29 -2 -29 8 0 15 5 15 11 0 6 5 4 10 -4 6
-9 10 -10 10 -3 0 6 -5 15 -10 18 -6 4 -8 11 -5 16 10 15 -1 10 -18 -9z"/>
<path d="M924 4029 c-6 -11 -6 -11 24 -14 12 -1 21 2 19 8 -4 13 -35 18 -43 6z"/>
<path d="M912 3978 c2 -5 8 -9 13 -9 5 0 11 4 13 9 1 5 -4 9 -13 9 -9 0 -14
-4 -13 -9z"/>
<path d="M1593 3940 c-13 -5 -23 -7 -23 -3 0 3 -7 0 -15 -7 -8 -7 -15 -9 -15
-4 0 5 -5 1 -11 -8 -5 -10 -15 -18 -22 -18 -7 0 -26 -13 -42 -28 -17 -15 -24
-23 -15 -17 9 6 7 0 -5 -15 -30 -37 -54 -84 -54 -106 -1 -10 -1 -32 -2 -49 -1
-62 4 -94 14 -88 6 4 8 0 4 -10 -3 -10 -2 -17 3 -17 5 0 12 -9 15 -21 9 -26
80 -101 88 -92 4 3 9 -1 13 -10 3 -8 14 -14 24 -12 10 2 20 -2 23 -8 6 -16
155 -13 175 3 1 2 5 3 10 4 16 3 100 61 96 67 -2 4 3 12 11 19 22 18 48 77 51
114 1 17 3 31 4 31 2 0 4 10 5 23 1 12 -2 22 -8 22 -5 0 -3 8 4 17 12 14 12
16 0 8 -11 -6 -13 -4 -8 8 3 9 2 19 -4 22 -5 4 -7 11 -4 16 4 5 2 9 -3 9 -5 0
-12 8 -16 18 -6 19 -27 54 -37 62 -55 43 -76 56 -103 63 -48 13 -128 17 -153
7z"/>
<path d="M1034 3518 c-3 -5 -10 -6 -15 -3 -5 4 -9 1 -9 -4 0 -6 -6 -10 -12 -8
-7 1 -12 -3 -11 -10 2 -7 -3 -10 -10 -7 -7 2 -23 -7 -35 -21 -12 -14 -19 -25
-16 -25 4 0 2 -6 -4 -12 -10 -13 -12 -18 -12 -39 0 -5 -6 -7 -12 -3 -7 4 -4
-3 7 -16 11 -13 15 -20 8 -17 -6 4 -14 3 -18 -3 -3 -5 -1 -10 5 -10 6 0 8 -5
5 -10 -4 -6 1 -22 9 -35 9 -14 12 -25 6 -25 -7 0 -6 -6 2 -14 7 -8 16 -12 21
-9 4 2 7 1 6 -4 -3 -19 2 -34 9 -29 5 3 14 -3 22 -14 7 -10 19 -16 27 -13 7 3
13 0 13 -7 0 -6 4 -8 10 -5 5 3 19 1 30 -5 11 -6 20 -7 20 -3 0 4 10 9 23 9
19 2 52 9 67 14 3 1 10 1 15 0 6 -1 7 1 3 5 -4 4 4 17 18 30 13 12 24 27 24
34 0 6 5 11 11 11 6 0 9 7 6 15 -4 8 -2 17 4 21 5 3 7 14 4 25 -4 11 -2 19 6
19 9 0 8 4 -1 15 -7 8 -9 15 -4 15 5 0 2 5 -6 10 -13 8 -13 10 -1 10 11 0 10
4 -5 16 -10 8 -12 13 -4 9 8 -4 5 3 -8 14 -13 11 -24 24 -24 28 -3 14 -45 43
-63 43 -9 0 -14 4 -11 8 8 13 -28 11 -36 -2 -5 -8 -8 -7 -8 1 0 14 -48 14 -56
1z"/>
<path d="M1606 3262 c-2 -2 -10 -5 -18 -6 -30 -5 -58 -18 -58 -27 0 -5 -6 -9
-12 -9 -7 0 -30 -18 -52 -40 -21 -22 -36 -40 -32 -40 4 0 0 -13 -8 -29 -9 -16
-12 -31 -9 -35 4 -3 2 -6 -3 -6 -11 0 -12 -80 -1 -97 4 -6 1 -14 -5 -16 -10
-4 -10 -6 0 -6 7 -1 10 -5 7 -11 -3 -5 -1 -10 4 -10 6 0 11 -8 11 -19 0 -33
104 -129 133 -123 4 1 7 -2 7 -6 0 -10 1 -10 83 -14 31 -2 57 1 57 5 0 5 9 7
19 4 12 -3 22 1 25 10 3 8 10 12 14 9 5 -3 21 6 37 20 15 13 32 24 37 24 5 0
6 5 3 10 -3 6 -3 10 2 10 12 0 44 60 37 71 -3 5 0 9 7 9 6 0 9 8 6 20 -3 11
-1 18 3 15 12 -8 9 37 -4 54 -8 11 -8 13 1 8 8 -5 11 0 10 13 -1 11 -5 20 -10
20 -5 0 -7 9 -4 20 3 11 2 20 -2 20 -4 0 -16 18 -27 40 -10 22 -22 40 -26 40
-4 0 -20 13 -36 28 -16 15 -34 26 -40 24 -7 -2 -12 1 -12 6 0 6 -9 8 -20 5
-11 -3 -20 -1 -20 4 0 8 -96 13 -104 5z"/>
<path d="M1033 2837 c3 -7 -3 -14 -14 -15 -42 -4 -48 -6 -44 -12 2 -3 -4 -14
-13 -23 -23 -22 -42 -45 -42 -52 0 -3 6 -3 13 1 6 4 4 -2 -6 -13 -13 -14 -15
-23 -7 -28 8 -5 8 -11 -1 -21 -9 -11 -9 -14 0 -14 7 0 10 -4 7 -9 -9 -14 5
-42 17 -34 5 3 7 1 4 -4 -9 -14 60 -86 73 -78 5 3 10 2 10 -4 0 -5 9 -8 20 -6
11 2 20 -1 20 -6 0 -6 6 -7 13 -2 6 4 23 8 35 9 13 0 28 7 33 15 5 8 9 10 9 5
0 -5 9 1 20 14 11 13 20 19 21 14 0 -5 5 2 11 16 6 14 10 28 10 33 -1 4 2 7 7
7 5 0 8 8 7 18 -2 9 2 20 7 24 7 4 6 12 -2 22 -8 9 -10 16 -6 16 4 0 1 8 -6
17 -12 15 -12 16 1 8 13 -8 13 -7 1 8 -7 9 -11 17 -8 17 3 0 -9 15 -26 33 -29
30 -42 36 -84 39 -7 1 -13 4 -13 8 0 4 -7 7 -15 7 -8 0 -15 -5 -15 -11 0 -6
-5 -5 -12 2 -16 16 -31 15 -25 -1z"/>
<path d="M1613 2580 c-2 -3 -9 -6 -14 -6 -5 -1 -10 -2 -11 -4 -2 -1 -12 -3
-23 -5 -11 -2 -24 -10 -30 -18 -5 -7 -17 -12 -25 -9 -8 3 -12 1 -8 -3 4 -4 -3
-17 -15 -29 -28 -26 -60 -76 -50 -76 5 0 1 -5 -7 -10 -13 -9 -13 -10 0 -10 12
-1 11 -3 -3 -11 -12 -7 -15 -14 -9 -22 6 -7 9 -27 7 -45 -1 -18 1 -35 6 -37 4
-3 6 -12 2 -20 -3 -8 0 -15 6 -15 6 0 10 -3 9 -7 -2 -5 10 -26 25 -48 15 -22
27 -35 27 -30 0 6 5 2 11 -7 5 -10 17 -18 24 -18 8 0 15 -4 15 -10 0 -6 3 -9
8 -9 21 4 32 -2 26 -13 -6 -10 -4 -10 8 0 13 10 19 10 32 -3 9 -9 16 -12 16
-7 0 5 16 8 35 7 19 0 35 3 35 8 0 4 5 5 10 2 6 -3 10 -1 10 4 0 6 3 10 8 9
15 -3 61 22 71 39 6 10 11 14 11 10 0 -4 6 -2 14 5 8 7 12 16 10 19 -2 4 3 12
11 19 7 6 11 19 8 27 -4 11 -2 14 5 9 8 -5 13 3 14 26 4 82 3 128 -2 128 -8 0
-33 63 -30 75 1 5 -1 7 -5 4 -3 -4 -19 5 -34 20 -48 44 -61 52 -70 46 -5 -3
-13 0 -16 6 -4 5 -13 8 -21 5 -8 -3 -14 -2 -14 2 0 8 -69 10 -77 2z"/>
<path d="M950 2576 c0 -2 8 -10 18 -17 15 -13 16 -12 3 4 -13 16 -21 21 -21
13z"/>
<path d="M1055 2160 c5 -8 3 -11 -6 -8 -8 3 -20 -2 -27 -11 -8 -9 -10 -10 -7
-3 6 11 3 11 -13 1 -12 -7 -18 -17 -16 -21 3 -4 -2 -8 -11 -8 -9 0 -13 -4 -10
-10 3 -5 1 -10 -4 -10 -6 0 -11 -10 -11 -21 0 -17 3 -19 14 -10 11 9 16 9 22
0 4 -7 3 -9 -4 -5 -6 3 -14 2 -17 -4 -5 -7 -11 -8 -19 -1 -8 7 -11 0 -11 -27
1 -45 23 -91 50 -106 11 -6 23 -15 26 -20 4 -5 11 -6 17 -2 6 3 14 1 18 -5 4
-7 3 -9 -4 -5 -6 3 -13 2 -16 -2 -8 -13 47 -10 56 3 5 6 8 5 8 -2 0 -7 5 -13
11 -13 5 0 7 4 4 10 -3 5 0 7 8 4 8 -3 18 -1 21 5 4 6 13 8 21 4 9 -3 15 1 15
11 0 9 7 16 15 16 8 0 15 3 14 8 -3 18 14 51 23 46 7 -5 7 -1 0 11 -6 11 -6
30 -1 47 5 17 4 26 -2 23 -8 -6 -13 8 -10 28 0 4 -3 7 -9 7 -5 0 -10 7 -10 15
0 14 -40 42 -40 28 0 -4 -5 0 -11 9 -6 11 -16 15 -26 11 -12 -5 -14 -3 -8 8 6
11 5 12 -5 2 -9 -9 -19 -9 -33 -2 -15 9 -18 8 -12 -1z m-1 -118 c3 -5 -1 -9
-9 -9 -8 0 -12 4 -9 9 3 4 7 8 9 8 2 0 6 -4 9 -8z m-24 -62 c0 -5 -5 -10 -11
-10 -5 0 -7 5 -4 10 3 6 8 10 11 10 2 0 4 -4 4 -10z m-43 -45 c0 -8 -4 -12 -9
-9 -4 3 -8 9 -8 15 0 5 4 9 8 9 5 0 9 -7 9 -15z m63 -15 c0 -5 -5 -10 -11 -10
-5 0 -7 5 -4 10 3 6 8 10 11 10 2 0 4 -4 4 -10z"/>
<path d="M1493 1925 c0 -8 4 -12 9 -9 5 3 6 10 3 15 -9 13 -12 11 -12 -6z"/>
<path d="M1624 1900 c-5 -5 -22 -11 -37 -12 -15 -1 -27 -5 -27 -9 0 -4 -11
-10 -25 -13 -14 -4 -25 -11 -25 -16 0 -5 -9 -18 -21 -29 -12 -11 -22 -31 -23
-45 0 -14 -6 -26 -13 -26 -6 0 -10 -9 -8 -20 2 -11 -1 -20 -7 -20 -6 0 -5 -7
3 -17 12 -15 12 -16 -6 -10 -18 6 -19 6 -3 -6 14 -11 15 -16 5 -27 -9 -10 -9
-11 1 -6 8 5 12 0 12 -15 0 -13 10 -34 23 -48 12 -14 14 -19 4 -12 -15 12 -17
12 -11 -3 3 -9 13 -16 21 -16 8 0 17 -9 20 -21 4 -16 8 -17 14 -7 7 10 9 9 9
-4 0 -10 4 -18 9 -18 5 0 17 -7 26 -16 12 -13 19 -14 30 -4 9 7 15 8 15 2 0
-5 7 -13 16 -16 8 -3 12 -2 9 4 -3 6 -2 10 4 10 5 0 12 -8 14 -17 3 -13 5 -12
6 5 1 22 2 22 17 7 15 -14 18 -14 33 -1 14 13 20 13 31 3 10 -9 11 -9 6 1 -6
11 5 16 26 13 6 -1 26 22 56 65 7 11 10 13 6 5 -5 -9 -3 -12 4 -7 6 4 8 14 5
23 -5 12 -2 15 10 10 18 -7 19 12 2 26 -6 4 -5 10 4 16 8 5 12 19 9 34 -3 18
0 28 11 32 15 6 15 7 0 18 -9 7 -14 18 -12 25 3 6 1 12 -4 12 -6 0 -10 7 -11
15 -1 8 -3 22 -4 30 -1 8 -5 12 -9 9 -9 -5 -35 36 -31 49 1 5 -2 6 -8 2 -5 -3
-10 -1 -10 4 0 6 -5 11 -11 11 -5 0 -7 -6 -4 -12 4 -7 -2 -4 -12 7 -19 21 -40
28 -88 29 -16 1 -33 4 -36 8 -3 5 -10 3 -15 -2z m176 -374 c0 -2 -8 -10 -17
-17 -16 -13 -17 -12 -4 4 13 16 21 21 21 13z"/>
<path d="M4824 1885 c0 -13 7 -27 14 -30 7 -3 10 0 7 6 -4 5 -1 18 6 27 7 9 9
14 5 10 -5 -4 -15 -3 -22 2 -9 8 -12 5 -10 -15z"/>
<path d="M4788 1846 c-13 -9 -14 -16 -4 -32 11 -19 12 -19 29 -2 11 12 13 18
5 18 -10 0 -10 2 0 9 11 7 11 9 0 13 -8 3 -21 0 -30 -6z m18 -11 c-1 -8 -5
-17 -8 -21 -5 -4 -4 16 1 34 3 9 9 -1 7 -13z"/>
<path d="M1906 1782 c-3 -5 1 -9 9 -9 8 0 12 4 9 9 -3 4 -7 8 -9 8 -2 0 -6 -4
-9 -8z"/>
<path d="M4626 1694 c-8 -22 -4 -25 11 -9 7 8 9 16 4 19 -5 3 -12 -1 -15 -10z"/>
<path d="M1995 1681 c-3 -5 -2 -12 3 -15 5 -3 9 1 9 9 0 17 -3 19 -12 6z"/>
<path d="M2335 1660 c-3 -5 -1 -10 4 -10 6 0 11 5 11 10 0 6 -2 10 -4 10 -3 0
-8 -4 -11 -10z"/>
<path d="M4350 1640 c0 -5 5 -10 11 -10 5 0 7 5 4 10 -3 6 -8 10 -11 10 -2 0
-4 -4 -4 -10z"/>
<path d="M2016 1622 c-3 -4 4 -9 15 -9 23 -2 25 3 4 10 -8 4 -16 3 -19 -1z"/>
<path d="M4455 1580 c-3 -5 -1 -10 4 -10 6 0 11 5 11 10 0 6 -2 10 -4 10 -3 0
-8 -4 -11 -10z"/>
<path d="M1936 1562 c-2 -4 -1 -14 4 -22 7 -11 9 -9 7 8 -1 24 -3 26 -11 14z"/>
<path d="M4335 1519 c-3 -4 2 -6 10 -5 21 3 28 13 10 13 -9 0 -18 -4 -20 -8z"/>
<path d="M4395 1521 c-3 -5 -2 -12 3 -15 5 -3 9 1 9 9 0 17 -3 19 -12 6z"/>
<path d="M4309 1483 c-13 -16 -12 -17 4 -4 16 13 21 21 13 21 -2 0 -10 -8 -17
-17z"/>
<path d="M4355 1480 c3 -5 8 -10 11 -10 2 0 4 5 4 10 0 6 -5 10 -11 10 -5 0
-7 -4 -4 -10z"/>
<path d="M4395 1460 c3 -5 8 -10 11 -10 2 0 4 5 4 10 0 6 -5 10 -11 10 -5 0
-7 -4 -4 -10z"/>
<path d="M1930 1399 c0 -5 5 -7 10 -4 6 3 10 8 10 11 0 2 -4 4 -10 4 -5 0 -10
-5 -10 -11z"/>
<path d="M4226 1402 c-3 -5 1 -9 9 -9 8 0 15 4 15 9 0 4 -4 8 -9 8 -6 0 -12
-4 -15 -8z"/>
<path d="M3779 1353 c-10 -12 -11 -15 -1 -9 7 4 20 2 30 -6 15 -11 15 -11 5 3
-7 9 -10 19 -6 22 3 4 2 7 -4 7 -6 0 -17 -8 -24 -17z"/>
<path d="M4174 1316 c1 -8 5 -18 8 -22 4 -3 5 1 4 10 -1 8 -5 18 -8 22 -4 3
-5 -1 -4 -10z"/>
<path d="M3756 1295 c-9 -26 -7 -32 5 -12 6 10 9 21 6 23 -2 3 -7 -2 -11 -11z"/>
<path d="M4113 1285 c0 -8 4 -12 9 -9 5 3 6 10 3 15 -9 13 -12 11 -12 -6z"/>
<path d="M3836 1278 c3 -4 11 -5 19 -1 21 7 19 12 -4 10 -11 0 -18 -5 -15 -9z"/>
<path d="M4066 1278 c3 -4 9 -8 15 -8 5 0 9 4 9 8 0 5 -7 9 -15 9 -8 0 -12 -4
-9 -9z"/>
<path d="M3860 1264 c0 -1 8 -8 17 -15 9 -8 14 -9 10 -2 -4 6 -1 13 5 16 7 3
3 4 -9 4 -13 -1 -23 -2 -23 -3z"/>
<path d="M1513 1245 c0 -8 4 -15 9 -15 4 0 8 4 8 9 0 6 -4 12 -8 15 -5 3 -9
-1 -9 -9z"/>
<path d="M4036 1247 c3 -10 9 -15 12 -12 3 3 0 11 -7 18 -10 9 -11 8 -5 -6z"/>
<path d="M3787 1231 c-3 -13 0 -18 7 -15 7 3 13 11 13 19 0 22 -14 18 -20 -4z"/>
<path d="M3899 1233 c-13 -16 -12 -17 4 -4 16 13 21 21 13 21 -2 0 -10 -8 -17
-17z"/>
<path d="M3747 1219 c7 -7 15 -10 18 -7 3 3 -2 9 -12 12 -14 6 -15 5 -6 -5z"/>
<path d="M3839 1213 c-13 -16 -12 -17 4 -4 16 13 21 21 13 21 -2 0 -10 -8 -17
-17z"/>
<path d="M3755 1191 c3 -5 1 -11 -4 -13 -5 -1 3 -12 17 -22 l27 -20 -18 21
c-13 15 -15 22 -6 25 9 3 7 7 -5 11 -9 4 -15 3 -11 -2z"/>
<path d="M3793 1173 c0 -9 4 -10 14 -2 7 6 13 12 13 14 0 1 -6 2 -13 2 -8 0
-14 -6 -14 -14z"/>
<path d="M3970 1179 c0 -5 5 -7 10 -4 6 3 10 8 10 11 0 2 -4 4 -10 4 -5 0 -10
-5 -10 -11z"/>
<path d="M3819 1153 c-13 -16 -12 -17 4 -4 9 7 17 15 17 17 0 8 -8 3 -21 -13z"/>
<path d="M4140 1166 c0 -2 8 -10 18 -17 15 -13 16 -12 3 4 -13 16 -21 21 -21
13z"/>
<path d="M3935 1140 c3 -5 8 -10 11 -10 2 0 4 5 4 10 0 6 -5 10 -11 10 -5 0
-7 -4 -4 -10z"/>
<path d="M3750 1118 c0 -4 4 -8 9 -8 6 0 12 4 15 8 3 5 -1 9 -9 9 -8 0 -15 -4
-15 -9z"/>
<path d="M3715 1111 c-3 -5 -2 -12 3 -15 5 -3 9 1 9 9 0 17 -3 19 -12 6z"/>
<path d="M3895 1099 c-3 -4 2 -6 10 -5 21 3 28 13 10 13 -9 0 -18 -4 -20 -8z"/>
<path d="M3657 1035 c-4 -8 -3 -16 1 -19 4 -3 9 4 9 15 2 23 -3 25 -10 4z"/>
<path d="M3195 1020 c6 -30 16 -40 12 -12 -2 12 -6 24 -10 28 -3 4 -4 -4 -2
-16z"/>
<path d="M3226 1027 c3 -10 9 -15 12 -12 3 3 0 11 -7 18 -10 9 -11 8 -5 -6z"/>
<path d="M2216 1022 c-2 -4 -1 -14 4 -22 7 -11 9 -9 7 8 -1 24 -3 26 -11 14z"/>
<path d="M2255 1020 c-3 -5 -1 -10 4 -10 6 0 11 5 11 10 0 6 -2 10 -4 10 -3 0
-8 -4 -11 -10z"/>
<path d="M3553 993 c0 -9 4 -10 14 -2 7 6 13 12 13 14 0 1 -6 2 -13 2 -8 0
-14 -6 -14 -14z"/>
<path d="M2136 981 c-3 -5 2 -15 12 -22 15 -12 16 -12 5 2 -7 9 -10 19 -6 22
3 4 4 7 0 7 -3 0 -8 -4 -11 -9z"/>
<path d="M3313 965 c0 -8 4 -15 9 -15 4 0 8 4 8 9 0 6 -4 12 -8 15 -5 3 -9 -1
-9 -9z"/>
<path d="M2100 966 c0 -2 8 -10 18 -17 15 -13 16 -12 3 4 -13 16 -21 21 -21
13z"/>
<path d="M3259 953 c-13 -16 -12 -17 4 -4 16 13 21 21 13 21 -2 0 -10 -8 -17
-17z"/>
<path d="M3379 953 c-13 -16 -12 -17 4 -4 16 13 21 21 13 21 -2 0 -10 -8 -17
-17z"/>
<path d="M3213 923 c1 -17 4 -19 14 -11 15 12 18 22 4 14 -5 -4 -11 0 -14 6
-3 7 -4 3 -4 -9z"/>
<path d="M3375 920 c5 -8 42 -6 50 1 2 3 -8 5 -25 5 -16 0 -27 -3 -25 -6z"/>
<path d="M3464 922 c4 -3 14 -7 22 -8 9 -1 13 0 10 4 -4 3 -14 7 -22 8 -9 1
-13 0 -10 -4z"/>
<path d="M2175 900 c-3 -5 -1 -10 4 -10 6 0 11 5 11 10 0 6 -2 10 -4 10 -3 0
-8 -4 -11 -10z"/>
<path d="M3174 889 c-3 -6 -2 -15 3 -20 5 -5 9 -1 9 11 0 23 -2 24 -12 9z"/>
<path d="M3306 878 c3 -5 10 -6 15 -3 13 9 11 12 -6 12 -8 0 -12 -4 -9 -9z"/>
<path d="M2196 862 c-3 -5 1 -9 9 -9 8 0 12 4 9 9 -3 4 -7 8 -9 8 -2 0 -6 -4
-9 -8z"/>
<path d="M2290 859 c0 -5 5 -7 10 -4 6 3 10 8 10 11 0 2 -4 4 -10 4 -5 0 -10
-5 -10 -11z"/>
<path d="M2370 860 c0 -5 5 -10 11 -10 5 0 7 5 4 10 -3 6 -8 10 -11 10 -2 0
-4 -4 -4 -10z"/>
<path d="M2456 862 c-3 -4 4 -9 15 -9 23 -2 25 3 4 10 -8 4 -16 3 -19 -1z"/>
<path d="M3150 857 c0 -2 6 -10 14 -16 11 -9 16 -9 22 1 4 7 4 10 -1 6 -4 -4
-14 -3 -22 3 -7 6 -13 9 -13 6z"/>
<path d="M2414 836 c1 -8 5 -18 8 -22 4 -3 5 1 4 10 -1 8 -5 18 -8 22 -4 3 -5
-1 -4 -10z"/>
<path d="M3290 839 c0 -5 5 -7 10 -4 6 3 10 8 10 11 0 2 -4 4 -10 4 -5 0 -10
-5 -10 -11z"/>
<path d="M3390 846 c0 -2 7 -7 16 -10 8 -3 12 -2 9 4 -6 10 -25 14 -25 6z"/>
<path d="M3335 820 c3 -5 8 -10 11 -10 2 0 4 5 4 10 0 6 -5 10 -11 10 -5 0 -7
-4 -4 -10z"/>
<path d="M2346 802 c-3 -5 1 -9 9 -9 8 0 12 4 9 9 -3 4 -7 8 -9 8 -2 0 -6 -4
-9 -8z"/>
<path d="M3476 802 c-3 -5 1 -9 9 -9 8 0 12 4 9 9 -3 4 -7 8 -9 8 -2 0 -6 -4
-9 -8z"/>
<path d="M3135 780 c3 -5 8 -10 11 -10 2 0 4 5 4 10 0 6 -5 10 -11 10 -5 0 -7
-4 -4 -10z"/>
<path d="M3170 779 c0 -5 5 -7 10 -4 6 3 10 8 10 11 0 2 -4 4 -10 4 -5 0 -10
-5 -10 -11z"/>
<path d="M3215 780 c3 -5 8 -10 11 -10 2 0 4 5 4 10 0 6 -5 10 -11 10 -5 0 -7
-4 -4 -10z"/>
<path d="M2565 770 c-3 -5 -1 -10 4 -10 6 0 11 5 11 10 0 6 -2 10 -4 10 -3 0
-8 -4 -11 -10z"/>
<path d="M2445 760 c-3 -6 1 -7 9 -4 18 7 21 14 7 14 -6 0 -13 -4 -16 -10z"/>
<path d="M3135 741 c-3 -5 -2 -12 3 -15 5 -3 9 1 9 9 0 17 -3 19 -12 6z"/>
<path d="M3190 726 c0 -2 7 -7 16 -10 8 -3 12 -2 9 4 -6 10 -25 14 -25 6z"/>
<path d="M2775 693 c-8 -22 -7 -23 21 -23 17 0 23 -4 18 -12 -5 -9 -2 -9 9 1
14 11 20 11 34 0 11 -10 14 -10 9 -1 -4 7 -2 12 4 12 6 0 8 5 5 10 -3 6 -2 10
4 10 5 0 12 -6 14 -12 4 -8 6 -9 6 -2 1 6 -5 17 -13 23 -12 10 -16 8 -21 -10
-6 -17 -9 -19 -16 -8 -8 12 -10 12 -18 0 -7 -11 -10 -10 -15 6 -7 23 -33 26
-41 6z"/>
<path d="M3066 682 c-3 -5 1 -9 9 -9 8 0 12 4 9 9 -3 4 -7 8 -9 8 -2 0 -6 -4
-9 -8z"/>
<path d="M2556 633 c-6 -14 -5 -15 5 -6 7 7 10 15 7 18 -3 3 -9 -2 -12 -12z"/>
<path d="M2915 640 c-3 -5 -1 -10 4 -10 6 0 11 5 11 10 0 6 -2 10 -4 10 -3 0
-8 -4 -11 -10z"/>
</g>
</svg>
